<svg width="40" height="40" viewBox="0 0 40 40" fill="none" xmlns="http://www.w3.org/2000/svg">
<rect width="40" height="40" rx="20" fill="#F3F6FF"/>
<path d="M26 17.5V20V17.5ZM26 20V22.5V20ZM26 20H28.5H26ZM26 20H23.5H26ZM21.8333 15.8333C21.8333 16.7174 21.4821 17.5652 20.857 18.1904C20.2319 18.8155 19.3841 19.1667 18.5 19.1667C17.6159 19.1667 16.7681 18.8155 16.143 18.1904C15.5179 17.5652 15.1667 16.7174 15.1667 15.8333C15.1667 14.9493 15.5179 14.1014 16.143 13.4763C16.7681 12.8512 17.6159 12.5 18.5 12.5C19.3841 12.5 20.2319 12.8512 20.857 13.4763C21.4821 14.1014 21.8333 14.9493 21.8333 15.8333ZM13.5 26.6667C13.5 25.3406 14.0268 24.0688 14.9645 23.1311C15.9021 22.1935 17.1739 21.6667 18.5 21.6667C19.8261 21.6667 21.0979 22.1935 22.0355 23.1311C22.9732 24.0688 23.5 25.3406 23.5 26.6667V27.5H13.5V26.6667Z" fill="#7E7E7E" stroke="#7E7E7E" strokeWidth="2" strokeLinejoin="round" stroke-linejoin="round"/>
</svg>
