<svg width="44" height="44" viewBox="0 0 44 44" fill="none" xmlns="http://www.w3.org/2000/svg">
<rect width="44" height="44" rx="12" fill="#F3F6FF"/>
<path d="M14.9882 14.9882C14.6756 15.3007 14.5 15.7246 14.5 16.1667V17C14.5 23.9033 20.0967 29.5 27 29.5H27.8333C28.2754 29.5 28.6993 29.3244 29.0118 29.0118C29.3244 28.6993 29.5 28.2754 29.5 27.8333V25.1008C29.5 24.9259 29.445 24.7553 29.3427 24.6134C29.2404 24.4714 29.096 24.3653 28.93 24.31L25.1858 23.0617C24.9956 22.9984 24.7888 23.0059 24.6036 23.0827C24.4184 23.1596 24.2671 23.3006 24.1775 23.48L23.2358 25.3608C21.1954 24.4389 19.5611 22.8046 18.6392 20.7642L20.52 19.8225C20.6994 19.7329 20.8404 19.5816 20.9173 19.3964C20.9941 19.2112 21.0016 19.0044 20.9383 18.8142L19.69 15.07C19.6348 14.9041 19.5287 14.7598 19.387 14.6575C19.2452 14.5552 19.0748 14.5001 18.9 14.5H16.1667C15.7246 14.5 15.3007 14.6756 14.9882 14.9882Z" stroke="#7E7E7E" strokeWidth="2" strokeLinejoin="round" stroke-linejoin="round"/>
</svg>
