<svg width="32" height="32" viewBox="0 0 32 32" fill="none" xmlns="http://www.w3.org/2000/svg">
<g clip-path="url(#clip0_1082_36727)">
<rect width="32" height="32" fill="#18212F"/>
<path d="M33.0776 5.10766C34.5486 3.01866 33.7576 0.252645 31.4586 -0.629354C32.0236 -1.47235 32.2226 -2.49235 32.0406 -3.74535C32.0136 -3.92835 31.9256 -4.06435 31.8046 -4.16935C31.3106 -5.01735 30.6936 -5.59035 29.9526 -5.90435C31.3726 -8.11135 29.5076 -11.1584 26.1846 -11.0924C23.0456 -11.0304 19.3366 -9.19336 16.1436 -7.92736C15.7316 -13.4034 13.2746 -21.7693 6.41359 -18.3783C4.08159 -17.2253 4.48558 -15.9734 5.16558 -13.9224C5.71658 -12.2624 6.48759 -10.6764 6.37059 -8.91335C6.18459 -6.10235 4.97459 -3.30236 3.71859 -0.748358C0.806585 -0.762358 -2.12741 0.646641 -3.45741 3.29464C-4.67641 5.72264 -2.1354 10.3656 -1.3964 12.5886C-0.572405 15.0736 0.078593 18.8717 3.23259 19.3747C6.15259 19.8397 9.3496 18.8067 11.1296 16.4647C14.2096 16.9247 16.1766 17.6737 19.4306 16.5937C23.2016 15.3417 26.9736 14.0896 30.7466 12.8386C33.0886 12.0606 35.0456 11.3716 35.6956 8.75665C36.1626 6.87065 34.7086 5.64266 33.0776 5.10766ZM31.3146 10.6107C30.7286 10.8047 30.1426 10.9997 29.5566 11.1937C27.4496 11.8927 25.3416 12.5926 23.2326 13.2916C21.3946 13.9016 19.5546 14.5126 17.7146 15.1226C15.4276 15.8816 13.2146 14.5306 10.9136 14.2936C10.2396 14.2246 9.34559 14.5166 9.02059 15.1606C7.70759 17.7646 3.63358 18.2376 2.61458 15.1666C2.14558 13.7537 1.67658 12.3406 1.20858 10.9276C0.169576 7.79864 -2.81243 0.202654 4.09557 1.36965C4.75357 1.48065 5.67957 1.11765 5.98857 0.502649C8.08057 -3.66035 10.1856 -8.30636 8.66259 -12.8994C8.29559 -14.0024 7.92959 -15.1053 7.56459 -16.2083C7.54859 -16.3173 7.53157 -16.3864 7.51357 -16.4574C8.66557 -17.3104 9.60959 -17.1744 10.3356 -16.0234C13.1636 -13.3714 13.2376 -9.90535 13.2826 -6.25835C13.2926 -5.40735 14.3256 -5.22435 14.9976 -5.44735C16.8376 -6.05735 18.6776 -6.66836 20.5176 -7.27836C21.8926 -7.73536 23.2696 -8.19136 24.6446 -8.64736C24.8766 -8.72436 25.1096 -8.80235 25.3416 -8.87935C25.1246 -8.48835 25.5936 -7.52435 26.7796 -5.96235C25.1276 -5.24735 26.2976 -3.97736 27.6586 -4.22736C28.1426 -3.77636 28.6256 -3.32535 29.1116 -2.87435C28.8656 -2.13535 28.6216 -1.39535 28.3756 -0.656347C27.2216 -0.0393467 27.4086 1.33965 28.8596 1.14865C30.4026 0.945646 31.0586 4.40164 29.7836 5.20764C28.6726 5.91164 29.5766 6.90965 30.5886 6.82565C32.1636 6.69565 32.8186 10.1117 31.3146 10.6107Z" fill="#137492" fill-opacity="0.12"/>
<path d="M16.5483 19.4842C16.4683 19.4812 16.3863 19.4872 16.3023 19.4992C16.2613 19.4992 16.2243 19.4952 16.1813 19.4972C6.94131 19.8722 -0.625692 26.2352 -1.76369 35.5542C-3.01169 45.7592 5.91032 53.5902 15.4533 53.9772C24.7933 54.3562 32.6643 46.9102 33.7643 37.9072C35.0113 27.7012 26.0913 19.8712 16.5483 19.4842ZM17.5213 52.1722C9.39431 53.1652 2.81232 46.3702 1.29832 38.9922C-0.562681 29.9162 6.75933 21.7602 15.5753 21.2572C33.8343 22.1242 36.4593 49.8572 17.5213 52.1722Z" fill="#137492" fill-opacity="0.12"/>
<path d="M5.98643 33.3374C8.86943 34.9544 11.7524 36.5714 14.6354 38.1894C15.3634 38.5974 16.7335 38.0614 17.3135 37.5884C20.9365 34.6414 24.5594 31.6934 28.1804 28.7464C28.8114 28.2334 26.0964 28.5174 25.5554 28.9574C21.9324 31.9044 18.3115 34.8524 14.6885 37.7994C15.5815 37.5984 16.4734 37.3984 17.3664 37.1984C14.4834 35.5814 11.6004 33.9644 8.71644 32.3464C7.97844 31.9324 5.60543 33.1234 5.98643 33.3374Z" fill="#137492" fill-opacity="0.12"/>
</g>
<defs>
<clipPath id="clip0_1082_36727">
<rect width="32" height="32" fill="white"/>
</clipPath>
</defs>
</svg>
