<svg width="16" height="17" viewBox="0 0 16 17" fill="none" xmlns="http://www.w3.org/2000/svg">
<path d="M5.33333 5.16667V2.5M10.6667 5.16667V2.5M4.66667 7.83333H11.3333M3.33333 14.5H12.6667C13.0203 14.5 13.3594 14.3595 13.6095 14.1095C13.8595 13.8594 14 13.5203 14 13.1667V5.16667C14 4.81304 13.8595 4.47391 13.6095 4.22386C13.3594 3.97381 13.0203 3.83333 12.6667 3.83333H3.33333C2.97971 3.83333 2.64057 3.97381 2.39052 4.22386C2.14048 4.47391 2 4.81304 2 5.16667V13.1667C2 13.5203 2.14048 13.8594 2.39052 14.1095C2.64057 14.3595 2.97971 14.5 3.33333 14.5Z" stroke="#4A5568" strokeLinejoin="round" stroke-linejoin="round"/>
</svg>
