<svg width="42" height="42" viewBox="0 0 42 42" fill="none" xmlns="http://www.w3.org/2000/svg">
<g clip-path="url(#clip0_110_1332)">
<path d="M21 41.9997C32.5662 41.9997 42 32.5662 42 21C42 9.43351 32.5665 0 21 0C9.43351 0 0 9.43351 0 20.9999C0 32.5662 9.43351 41.9997 21 41.9997Z" fill="white"/>
<path d="M14.3377 27.3602C12.6699 23.1527 9.1666 19.3448 13.575 11.6745C15.3906 8.51552 18.1639 6.43212 21.0289 7.1375C23.8938 6.4322 26.6671 8.51559 28.4827 11.6745C32.891 19.3448 29.3879 23.1527 27.7199 27.3602L21.0291 27.3768L14.3379 27.3602H14.3377Z" fill="#4E1E30"/>
<path fillRule="evenodd" clipRule="evenodd" d="M33.2604 38.0324C29.8067 40.5274 25.5697 42.0001 20.9998 42.0001C16.4422 42.0001 12.2158 40.5354 8.76715 38.0526C8.91529 37.4239 9.05585 36.7884 9.18375 36.2103C9.4403 35.0505 9.64589 34.1211 9.75941 33.9379C11.1866 31.6335 12.9583 30.814 14.5158 30.0936C16.462 29.1934 18.0737 28.4479 18.2609 25.1531C18.2609 25.1531 19.7434 26.2888 20.9601 26.2779C22.1766 26.2671 23.7699 25.0781 23.7699 25.0781C23.9578 28.3817 25.5747 29.1456 27.5257 30.0673C29.0807 30.802 30.8479 31.6369 32.2729 33.9379C32.3863 34.1209 32.5917 35.0494 32.8481 36.2082C32.9747 36.7808 33.1138 37.4095 33.2604 38.0324Z" fill="#FFE1B2"/>
<path d="M23.8555 25.9165C23.8156 25.6562 23.7862 25.378 23.7693 25.0781C23.7693 25.0781 22.176 26.2671 20.9595 26.2779C19.7428 26.2888 18.2603 25.1531 18.2603 25.1531C18.2431 25.4584 18.2129 25.7408 18.1718 26.0045C18.2029 26.0291 18.2339 26.0541 18.2656 26.0785L18.2652 26.0828C18.3589 26.1644 19.783 27.3889 20.9592 27.3766C22.1355 27.3889 23.5594 26.1641 23.6533 26.0828L23.653 26.0785C23.7221 26.0256 23.7891 25.9712 23.8553 25.9166L23.8555 25.9165Z" fill="#F0C290"/>
<path d="M18.2658 25.157C18.3595 25.2277 19.7836 26.2885 20.9599 26.2779C22.1361 26.2885 23.5601 25.2275 23.6539 25.157C25.4317 24.1205 26.8906 21.0646 26.5613 17.7527C26.2916 15.0398 23.3568 19.0177 21.3127 13.4202C18.4197 19.4804 15.672 15.8956 15.3587 18.1923C15.0134 20.7228 16.4341 23.9068 18.2658 25.1571V25.157V25.157Z" fill="#FFE1B2"/>
<path fillRule="evenodd" clipRule="evenodd" d="M33.3177 37.9911C29.8536 40.5112 25.5951 42.0002 21 42.0002C16.4151 42.0002 12.1653 40.5179 8.70544 38.008C8.9044 36.9915 9.0913 35.8718 9.25427 34.8954C9.47759 33.5575 9.65599 32.4887 9.75896 32.3232C10.5567 31.0407 12.2047 30.5856 13.7391 30.1619C14.5485 29.9383 15.3263 29.7236 15.9309 29.4007L15.9315 29.4013C19.178 39.816 23.2395 39.1421 25.9645 29.2559C26.5542 29.5725 27.3696 29.7923 28.2228 30.0223C29.9054 30.4758 31.7353 30.969 32.2722 32.3232C32.3342 32.4795 32.4747 33.296 32.66 34.3733C32.8455 35.4515 33.076 36.7909 33.3177 37.9911ZM15.9312 29.4005C15.9311 29.4006 15.931 29.4006 15.9309 29.4007L15.9308 29.4005H15.9312ZM15.9312 29.4005C15.9312 29.4005 15.9313 29.4005 15.9313 29.4005V29.4005H15.9312Z" fill="#137492"/>
<path d="M17.099 28.4177C16.9852 31.4935 17.5082 35.851 20.9594 36.9646C17.7102 37.1004 15.6018 32.4189 13.2 31.1927L17.0989 28.418V28.4177H17.099Z" fill="#F3F6FF"/>
<path d="M25.0136 28.4177C25.1329 31.4935 24.584 35.851 20.9598 36.9646C24.3717 37.1004 26.5858 32.4189 29.1075 31.1927L25.0135 28.418L25.0136 28.4177Z" fill="#F3F6FF"/>
</g>
<rect x="0.5" y="0.5" width="41" height="41" rx="20.5" stroke="#F3F6FF"/>
<rect x="30" y="30" width="12" height="12" rx="6" fill="white"/>
<circle cx="36" cy="36" r="5" fill="#2DAA50"/>
<defs>
<clipPath id="clip0_110_1332">
<rect width="42" height="42" rx="21" fill="white"/>
</clipPath>
</defs>
</svg>
