<svg width="42" height="42" viewBox="0 0 42 42" fill="none" xmlns="http://www.w3.org/2000/svg">
<g clip-path="url(#clip0_184_4036)">
<path d="M21 41.9997C32.5662 41.9997 42 32.5662 42 21C42 9.43351 32.5665 0 21 0C9.43351 0 0 9.43351 0 20.9999C0 32.5662 9.43351 41.9997 21 41.9997Z" fill="white"/>
<path d="M31.9505 13.0005L29.2345 27.7448L31.1746 28.1328C35.2809 25.1258 37.0431 13.0005 31.9505 13.0005Z" fill="#414141"/>
<path d="M31.9508 13.0003C31.2718 12.588 27.6881 11.5409 24.9666 13.0003C21.6201 14.7948 18.6938 21.2131 23.4146 27.7446C23.4213 27.7538 26.9067 27.3566 26.9067 27.3566L31.9508 13.0003Z" fill="#414141"/>
<path fillRule="evenodd" clipRule="evenodd" d="M31.9504 36.3211C30.8317 36.6012 29.662 36.75 28.4587 36.75C27.2551 36.75 26.0851 36.6012 24.9662 36.3209V28.3684C25.7385 27.7852 25.7422 26.8211 25.7422 25.9342V25.0288H31.1743V25.9351H31.1954C31.1954 26.8144 31.1978 27.7702 31.9504 28.3548V36.3211Z" fill="#FFE1B2"/>
<path fillRule="evenodd" clipRule="evenodd" d="M31.5628 36.4124C30.5625 36.6334 29.5237 36.75 28.4586 36.75C27.6664 36.75 26.8888 36.6855 26.1307 36.5615V32.8742C26.8371 33.0663 27.6244 33.1769 28.4588 33.1769C29.6139 33.1769 30.6826 32.9694 31.5628 32.6182V36.4124Z" fill="white"/>
<path d="M31.5627 30.0723C31.7043 30.1109 31.8318 30.1315 31.9507 30.1415V28.3542C31.1982 27.7695 31.1958 26.8138 31.1958 25.9344L31.1952 25.9119V25.0056L26.9066 25.0281L25.7426 25.4161C26.5186 26.2892 28.8952 29.3448 31.5627 30.0723Z" fill="#F0C290"/>
<path d="M33.8908 19.9842C33.8908 23.0914 30.8006 26.9684 28.4587 26.9684C26.1169 26.9684 23.0266 23.0914 23.0266 19.9842C23.0266 16.877 25.4587 15.7161 28.4587 15.7161C31.4587 15.7161 33.8908 16.877 33.8908 19.9842Z" fill="#FFE1B2"/>
<path d="M29.2346 13.7766C29.0166 13.7766 28.3087 14.0216 27.7302 14.2362L27.6825 14.1646C27.6825 14.1646 27.6027 14.2273 27.4645 14.3361C27.1427 14.4582 26.9066 14.5526 26.9066 14.5526L26.9973 14.7039C25.5246 15.8642 22.1645 18.5185 21.8624 18.8207C21.4744 19.2087 24.1905 29.108 24.1905 23.4768C24.1905 18.7722 26.8042 17.8405 29.2346 17.2687C30.3339 17.01 30.6573 16.3633 30.7866 15.7167C30.9159 15.07 29.6226 13.7766 29.2346 13.7766Z" fill="#414141"/>
<path d="M30.399 16.1045C31.1104 18.6589 32.5331 19.8148 33.8669 20.1544C34.5977 20.3404 34.2792 18.0446 34.2792 18.0446C34.2792 18.0446 33.2444 15.3932 33.1151 15.3285C32.9858 15.2639 31.9511 13.0005 31.9511 13.0005L29.623 14.9406L30.399 16.1045Z" fill="#414141"/>
<path fillRule="evenodd" clipRule="evenodd" d="M27.4202 36.7287L25.3918 27.9031C25.0284 28.4935 24.2875 28.9085 22.7671 28.9085H22.6377C20.3514 28.9085 18.4848 30.7063 18.3748 32.9655C20.8006 35.1522 23.9545 36.5454 27.4202 36.7287Z" fill="#4A5568"/>
<path fillRule="evenodd" clipRule="evenodd" d="M38.5142 32.6459C38.2528 30.5392 36.4562 28.9088 34.2788 28.9088H34.1495C32.629 28.9088 31.8881 28.4937 31.5247 27.9033L29.5001 36.7125C32.9927 36.4611 36.1474 34.9555 38.5142 32.6459Z" fill="#4A5568"/>
<path d="M33.3131 20.0198C33.948 19.8743 34.3639 20.1852 34.3639 20.7959C34.3639 21.6042 33.5102 23.5847 32.6126 22.3479C31.715 21.1111 33.3131 20.0198 33.3131 20.0198Z" fill="#FFE1B2"/>
<path d="M7.36364 26.5025C6.19616 23.5571 3.74378 20.8915 6.82972 15.5222C8.10068 13.3109 10.0421 11.8525 12.0476 12.3462C14.0531 11.8525 15.9945 13.3109 17.2654 15.5222C20.3513 20.8915 17.899 23.5571 16.7314 26.5025L12.0477 26.5141L7.36381 26.5025H7.36364Z" fill="#414141"/>
<path fillRule="evenodd" clipRule="evenodd" d="M20.5772 33.8329C18.2113 35.6609 15.2482 36.7504 12.0389 36.7504C8.82932 36.7504 5.86613 35.6608 3.50024 33.8327C3.5907 33.4435 3.67671 33.0547 3.75579 32.6972C3.93538 31.8854 4.0793 31.2348 4.15876 31.1065C5.15785 29.4934 6.39807 28.9197 7.48834 28.4154C8.85072 27.7853 9.97894 27.2634 10.1099 24.957C10.1099 24.957 11.1477 25.752 11.9994 25.7444C12.851 25.7368 13.9663 24.9045 13.9663 24.9045C14.0979 27.2171 15.2297 27.7518 16.5955 28.3971C17.684 28.9114 18.921 29.4958 19.9186 31.1065C19.998 31.2346 20.1418 31.8846 20.3212 32.6958C20.4004 33.0538 20.4866 33.4431 20.5772 33.8329Z" fill="#FFE1B2"/>
<path d="M14.0268 25.4914C13.9989 25.3092 13.9783 25.1144 13.9665 24.9045C13.9665 24.9045 12.8511 25.7368 11.9995 25.7444C11.1479 25.752 10.1101 24.957 10.1101 24.957C10.098 25.1708 10.0769 25.3685 10.0481 25.553C10.0699 25.5703 10.0916 25.5878 10.1138 25.6048L10.1135 25.6078C10.1791 25.6649 11.176 26.5222 11.9994 26.5135C12.8228 26.5221 13.8196 25.6648 13.8852 25.6078L13.8851 25.6048C13.9334 25.5678 13.9803 25.5297 14.0267 25.4915L14.0268 25.4914Z" fill="#F0C290"/>
<path d="M10.1117 24.9609C10.1773 25.0103 11.1742 25.753 11.9976 25.7455C12.821 25.753 13.8178 25.0102 13.8835 24.9609C15.128 24.2353 16.1492 22.0961 15.9187 19.7778C15.7299 17.8787 13.6755 20.6633 12.2446 16.7449C10.2195 20.9871 8.29597 18.4777 8.07667 20.0854C7.83495 21.8568 8.82945 24.0857 10.1117 24.961V24.9609Z" fill="#FFE1B2"/>
<path fillRule="evenodd" clipRule="evenodd" d="M20.6213 33.7996C18.2485 35.6475 15.269 36.7502 12.0403 36.7502C8.80835 36.7502 5.82624 35.6454 3.45227 33.7942C3.57988 33.1269 3.69973 32.4089 3.80526 31.7767C3.96159 30.8401 4.08647 30.0919 4.15855 29.9761C4.71699 29.0782 5.87064 28.7597 6.94473 28.4631C7.51132 28.3066 8.05577 28.1563 8.47904 27.9302L8.47941 27.9307C10.752 35.2212 13.5952 34.7494 15.5027 27.8289C15.9155 28.0505 16.4863 28.2044 17.0836 28.3654C18.2614 28.6828 19.5424 29.0281 19.9182 29.9761C19.9616 30.0855 20.06 30.657 20.1897 31.4112C20.3122 32.123 20.4627 32.9975 20.6213 33.7996ZM8.4792 27.9301C8.47915 27.9302 8.47909 27.9302 8.47904 27.9302L8.47897 27.9301H8.4792ZM8.4792 27.9301C8.47923 27.9301 8.47927 27.9301 8.4793 27.9301V27.9301H8.4792Z" fill="#4A5568"/>
<path d="M9.29749 27.2424C9.21787 29.3955 9.58395 32.4459 11.9999 33.2254C9.72537 33.3205 8.24945 30.0433 6.56812 29.185L9.29744 27.2426V27.2424H9.29749Z" fill="#F3F6FF"/>
<path d="M14.8373 27.2424C14.9208 29.3955 14.5365 32.4459 11.9995 33.2254C14.3879 33.3205 15.9378 30.0433 17.7031 29.185L14.8372 27.2426L14.8373 27.2424Z" fill="#F3F6FF"/>
<path d="M26.0728 31.7419V27.5181H15.2075V31.7419L20.6402 36.5692L26.0728 31.7419Z" fill="#FFE1B2"/>
<path fillRule="evenodd" clipRule="evenodd" d="M20.9147 41.9998H21.0856C27.0177 41.976 32.3831 39.4709 36.194 35.4721C35.977 34.6158 35.3007 33.9272 34.4112 33.7175L26.9596 31.9606C26.847 31.9341 26.7435 31.8891 26.6466 31.8344L20.6113 35.3622L14.8113 31.6638C14.6612 31.8055 14.4748 31.9107 14.2631 31.9607L6.81153 33.7176C6.13813 33.8764 5.58696 34.3095 5.26465 34.8821C9.09982 39.2229 14.6958 41.9748 20.9147 41.9998Z" fill="#137492"/>
<path d="M15.2075 27.5181V31.9746C22.0512 34.4394 26.0728 28.2706 26.0728 28.2706V27.5181H15.2075V27.5181Z" fill="#F0C290"/>
<path d="M12.7926 13.6394L13.3186 25.2076C13.3677 26.2883 13.8978 27.2905 14.7636 27.9396L17.2594 29.8108C17.8864 30.2808 18.6488 30.5349 19.4325 30.5349H21.8471C22.6307 30.5349 23.3932 30.2809 24.0201 29.8108L26.516 27.9396C27.3817 27.2904 27.9118 26.2884 27.9609 25.2076L28.487 13.6394C28.4869 13.6394 12.7926 13.6394 12.7926 13.6394Z" fill="#FFE1B2"/>
<path fillRule="evenodd" clipRule="evenodd" d="M22.1465 41.9688C21.7669 41.9894 21.3847 41.9998 21.0001 41.9998C20.3721 41.9998 19.7504 41.972 19.1362 41.9176L19.5078 36.5693H21.7714L22.1465 41.9688Z" fill="#4A5568"/>
<path d="M22.1496 35.3623H19.1315V36.4979C19.1315 36.8706 19.4336 37.1726 19.8063 37.1726H21.4747C21.8475 37.1726 22.1496 36.8706 22.1496 36.4979V35.3623H22.1496Z" fill="#4A5568"/>
<path d="M15.1228 30.3986L20.6402 35.3625C20.6402 35.3625 19.0951 36.1422 17.1883 37.7139C16.7949 38.038 16.1999 37.9067 15.9889 37.4428L13.3967 31.742L14.2168 30.5125C14.4208 30.2062 14.8492 30.1525 15.1228 30.3986Z" fill="#F3F6FF"/>
<path d="M26.1572 30.3986L20.6398 35.3625C20.6398 35.3625 22.185 36.1422 24.0918 37.7139C24.4851 38.038 25.0801 37.9067 25.2911 37.4428L27.8833 31.742L27.0632 30.5125C26.8591 30.2062 26.4308 30.1525 26.1572 30.3986Z" fill="#F3F6FF"/>
<path d="M24.3 9.6422L24.8659 13.6398C27.4491 14.1563 27.8214 18.2087 27.875 19.3662C27.8847 19.5762 27.9518 19.779 28.0658 19.9558L29.0514 21.4841C29.0514 21.4841 28.7141 18.9573 30.2586 17.2602C30.2587 17.2602 30.7891 7.22852 24.3 9.6422Z" fill="#4E1E30"/>
<path d="M29.656 21.2266L28.9748 23.9514C28.8941 24.2744 28.604 24.5009 28.271 24.5009C27.9051 24.5009 27.5965 24.2285 27.5511 23.8654L27.2027 21.0784C27.1095 20.3324 27.6911 19.6736 28.4429 19.6736H28.4434C29.2566 19.6737 29.8533 20.4377 29.656 21.2266Z" fill="#FFE1B2"/>
<path d="M13.3718 8.56064L14.2646 9.17033C10.2279 12.1497 10.9824 17.2598 10.9824 17.2598C12.1896 18.4666 12.1896 21.4837 12.1896 21.4837L13.3969 20.2769C13.3969 20.2769 12.931 16.7908 15.2077 15.4496C17.3204 14.2051 19.169 14.8462 21.0554 14.8462C26.1108 14.8462 27.5256 12.9417 27.2803 10.6223C27.1534 9.42223 25.3179 6.92235 20.6404 7.00185C18.7528 7.03391 15.2079 7.60525 13.3718 8.56064Z" fill="#66273F"/>
<path d="M13.0197 14.3182C13.0197 14.3182 12.3783 11.7914 14.2646 9.17041C10.2279 12.1498 10.9824 17.2599 10.9824 17.2599C12.1896 18.4667 12.1896 21.4838 12.1896 21.4838L13.3969 20.277C13.3969 20.277 12.931 16.7908 15.2077 15.4497C17.3204 14.2052 19.169 14.8463 21.0554 14.8463C21.8776 14.8463 22.594 14.7913 23.2322 14.6969C19.339 14.8274 17.044 11.8794 13.0197 14.3182Z" fill="#4E1E30"/>
<path d="M11.6231 21.2266L12.3043 23.9514C12.3851 24.2744 12.6752 24.5009 13.0082 24.5009C13.3741 24.5009 13.6827 24.2285 13.728 23.8654L14.0765 21.0784C14.1697 20.3324 13.5881 19.6736 12.8363 19.6736H12.8358C12.0226 19.6737 11.4259 20.4377 11.6231 21.2266Z" fill="#FFE1B2"/>
</g>
<defs>
<clipPath id="clip0_184_4036">
<rect width="42" height="42" rx="21" fill="white"/>
</clipPath>
</defs>
</svg>
