<svg width="40" height="38" viewBox="0 0 40 38" fill="none" xmlns="http://www.w3.org/2000/svg">
<path d="M7.40636 18.6923C7.40636 18.6923 13.0736 7.98383 15.0525 4.29839C16.5643 1.48271 21.0779 0.935943 23.3449 2.54483C24.1868 3.1423 25.5068 4.06721 25.5068 4.06721L17.9095 5.66166L9.6829 20.814L7.40636 18.6923Z" fill="#137492"/>
<path d="M11.465 24.1088C11.465 24.1088 17.1322 13.4003 19.1111 9.71489C20.6229 6.89921 25.1365 6.35245 27.4035 7.96133C28.2454 8.5588 29.5654 9.48371 29.5654 9.48371L21.9681 11.0782L13.7415 26.2305L11.465 24.1088Z" fill="#85B6C5"/>
<path d="M23.709 36.1908C23.709 36.1908 11.5934 36.2142 7.41029 36.1972C4.21443 36.1842 1.61266 32.4556 1.96893 29.6986C2.10123 28.6748 2.29817 27.0751 2.29817 27.0751L7.27267 33.0345L24.5136 33.1846L23.709 36.1908Z" fill="#137492"/>
<path d="M25.4497 29.4527C25.4497 29.4527 13.3341 29.4761 9.15101 29.4591C5.95515 29.4461 3.35338 25.7176 3.70965 22.9606C3.84195 21.9368 4.03889 20.3371 4.03889 20.3371L9.01339 26.2965L26.2543 26.4466L25.4497 29.4527Z" fill="#85B6C5"/>
<path d="M30.93 13.0995C30.93 13.0995 36.0715 24.0701 37.824 27.8684C39.1628 30.7703 36.8831 34.7041 34.2339 35.5464C33.2501 35.8591 31.717 36.3567 31.717 36.3567L35.0158 29.3297L27.8655 13.6407L30.93 13.0995Z" fill="#137492"/>
<path d="M23.6185 13.0995C23.6185 13.0995 28.76 24.0701 30.5124 27.8684C31.8513 30.7703 29.5716 34.7041 26.9224 35.5464C25.9386 35.8591 24.4055 36.3567 24.4055 36.3567L27.7042 29.3297L20.554 13.6407L23.6185 13.0995Z" fill="#85B6C5"/>
<path d="M20 20.7385L21.7321 23.7385H18.2679L20 20.7385Z" fill="#137492"/>
</svg>
