<svg width="44" height="44" viewBox="0 0 44 44" fill="none" xmlns="http://www.w3.org/2000/svg">
<rect width="44" height="44" rx="12" fill="#F3F6FF"/>
<path d="M17.8333 18.6666H26.1667M17.8333 21.9999H21.1667M22 28.6666L18.6667 25.3333H16.1667C15.7246 25.3333 15.3007 25.1577 14.9882 24.8451C14.6756 24.5325 14.5 24.1086 14.5 23.6666V16.9999C14.5 16.5579 14.6756 16.134 14.9882 15.8214C15.3007 15.5088 15.7246 15.3333 16.1667 15.3333H27.8333C28.2754 15.3333 28.6993 15.5088 29.0118 15.8214C29.3244 16.134 29.5 16.5579 29.5 16.9999V23.6666C29.5 24.1086 29.3244 24.5325 29.0118 24.8451C28.6993 25.1577 28.2754 25.3333 27.8333 25.3333H25.3333L22 28.6666Z" stroke="#7E7E7E" strokeWidth="2" strokeLinejoin="round" stroke-linejoin="round"/>
</svg>
