<svg width="16" height="17" viewBox="0 0 16 17" fill="none" xmlns="http://www.w3.org/2000/svg">
<path d="M12.6668 7.8313C12.6668 9.06898 12.1752 10.256 11.3 11.1311C10.4248 12.0063 9.23784 12.498 8.00016 12.498M8.00016 12.498C6.76249 12.498 5.5755 12.0063 4.70033 11.1311C3.82516 10.256 3.3335 9.06898 3.3335 7.8313M8.00016 12.498V15.1646M8.00016 15.1646H5.3335M8.00016 15.1646H10.6668M8.00016 9.8313C7.46973 9.8313 6.96102 9.62059 6.58595 9.24551C6.21088 8.87044 6.00016 8.36173 6.00016 7.8313V3.8313C6.00016 3.30087 6.21088 2.79216 6.58595 2.41709C6.96102 2.04201 7.46973 1.8313 8.00016 1.8313C8.5306 1.8313 9.0393 2.04201 9.41438 2.41709C9.78945 2.79216 10.0002 3.30087 10.0002 3.8313V7.8313C10.0002 8.36173 9.78945 8.87044 9.41438 9.24551C9.0393 9.62059 8.5306 9.8313 8.00016 9.8313Z" stroke="#4A5568" strokeLinejoin="round" stroke-linejoin="round"/>
<path d="M9.93359 9.85099L11.4232 11.2096L12.8111 12.4755M9.93412 9.85147L8.44456 8.4929L7.70004 7.81385L3.3335 3.8313" stroke="#4A5568" strokeLinejoin="round" stroke-linejoin="round"/>
</svg>
