<svg width="16" height="17" viewBox="0 0 16 17" fill="none" xmlns="http://www.w3.org/2000/svg">
<path d="M7.33366 3.83336H4.00033C3.6467 3.83336 3.30756 3.97384 3.05752 4.22388C2.80747 4.47393 2.66699 4.81307 2.66699 5.16669V12.5C2.66699 12.8536 2.80747 13.1928 3.05752 13.4428C3.30756 13.6929 3.6467 13.8334 4.00033 13.8334H11.3337C11.6873 13.8334 12.0264 13.6929 12.2765 13.4428C12.5265 13.1928 12.667 12.8536 12.667 12.5V9.16669M11.7243 2.89069C11.8473 2.76335 11.9944 2.66177 12.1571 2.59189C12.3198 2.52201 12.4948 2.48523 12.6718 2.48369C12.8488 2.48215 13.0244 2.51589 13.1883 2.58293C13.3521 2.64997 13.501 2.74898 13.6262 2.87417C13.7514 2.99936 13.8504 3.14823 13.9174 3.31209C13.9845 3.47595 14.0182 3.65152 14.0167 3.82856C14.0151 4.0056 13.9783 4.18056 13.9085 4.34323C13.8386 4.5059 13.737 4.65303 13.6097 4.77603L7.88566 10.5H6.00033V8.61469L11.7243 2.89069Z" stroke="#4A5568" strokeLinejoin="round" stroke-linejoin="round"/>
</svg>
