<svg width="42" height="42" viewBox="0 0 42 42" fill="none" xmlns="http://www.w3.org/2000/svg">
<rect width="42" height="42" rx="21" fill="#137492"/>
<path d="M28.9239 13.617C28.874 13.4966 28.8009 13.3873 28.7089 13.295L28.7049 13.291C28.5178 13.1044 28.2642 12.9997 27.9999 13H23.9999C23.7347 13 23.4803 13.1054 23.2928 13.2929C23.1053 13.4804 22.9999 13.7348 22.9999 14C22.9999 14.2652 23.1053 14.5196 23.2928 14.7071C23.4803 14.8946 23.7347 15 23.9999 15H25.5859L22.2929 18.293C22.1108 18.4816 22.01 18.7342 22.0122 18.9964C22.0145 19.2586 22.1197 19.5094 22.3051 19.6948C22.4905 19.8802 22.7413 19.9854 23.0035 19.9877C23.2657 19.99 23.5183 19.8892 23.7069 19.707L26.9999 16.414V18C26.9999 18.2652 27.1053 18.5196 27.2928 18.7071C27.4803 18.8946 27.7347 19 27.9999 19C28.2651 19 28.5195 18.8946 28.707 18.7071C28.8946 18.5196 28.9999 18.2652 28.9999 18V14C29.0001 13.8686 28.9742 13.7384 28.9239 13.617Z" fill="#C7FEFF"/>
<path d="M13 14C13 13.7348 13.1054 13.4804 13.2929 13.2929C13.4804 13.1054 13.7348 13 14 13H16.153C16.3897 13.0001 16.6187 13.0842 16.7992 13.2373C16.9798 13.3903 17.1002 13.6025 17.139 13.836L17.879 18.271C17.9144 18.4822 17.881 18.6992 17.7838 18.89C17.6866 19.0809 17.5306 19.2354 17.339 19.331L15.791 20.104C16.3461 21.4797 17.1728 22.7293 18.2218 23.7782C19.2707 24.8272 20.5203 25.6539 21.896 26.209L22.67 24.661C22.7655 24.4695 22.9199 24.3138 23.1106 24.2166C23.3012 24.1194 23.5179 24.0859 23.729 24.121L28.164 24.861C28.3975 24.8998 28.6097 25.0202 28.7627 25.2008C28.9158 25.3813 28.9999 25.6103 29 25.847V28C29 28.2652 28.8946 28.5196 28.7071 28.7071C28.5196 28.8946 28.2652 29 28 29H26C18.82 29 13 23.18 13 16V14Z" fill="#C7FEFF"/>
</svg>
