<svg width="42" height="42" viewBox="0 0 42 42" fill="none" xmlns="http://www.w3.org/2000/svg">
<rect width="42" height="42" rx="21" fill="#137492"/>
<path d="M13 14C13 13.7348 13.1054 13.4804 13.2929 13.2929C13.4804 13.1054 13.7348 13 14 13H16.153C16.3897 13.0001 16.6187 13.0842 16.7992 13.2373C16.9798 13.3903 17.1002 13.6025 17.139 13.836L17.879 18.271C17.9144 18.4822 17.881 18.6992 17.7838 18.89C17.6866 19.0809 17.5306 19.2354 17.339 19.331L15.791 20.104C16.3461 21.4797 17.1728 22.7293 18.2218 23.7782C19.2707 24.8272 20.5203 25.6539 21.896 26.209L22.67 24.661C22.7655 24.4695 22.9199 24.3138 23.1106 24.2166C23.3012 24.1194 23.5179 24.0859 23.729 24.121L28.164 24.861C28.3975 24.8998 28.6097 25.0202 28.7627 25.2008C28.9158 25.3813 28.9999 25.6103 29 25.847V28C29 28.2652 28.8946 28.5196 28.7071 28.7071C28.5196 28.8946 28.2652 29 28 29H26C18.82 29 13 23.18 13 16V14Z" fill="#C7FEFF"/>
<path d="M27.7071 14.293C27.8946 14.4806 27.9999 14.7349 27.9999 15C27.9999 15.2652 27.8946 15.5195 27.7071 15.707L26.4141 17L27.7071 18.293C27.8892 18.4816 27.99 18.7342 27.9878 18.9964C27.9855 19.2586 27.8803 19.5094 27.6949 19.6948C27.5095 19.8803 27.2587 19.9854 26.9965 19.9877C26.7343 19.99 26.4817 19.8892 26.2931 19.707L25.0001 18.414L23.7071 19.707C23.6148 19.8025 23.5045 19.8787 23.3825 19.9311C23.2605 19.9835 23.1293 20.0111 22.9965 20.0123C22.8637 20.0134 22.732 19.9881 22.6091 19.9379C22.4862 19.8876 22.3746 19.8133 22.2807 19.7194C22.1868 19.6255 22.1125 19.5139 22.0623 19.391C22.012 19.2681 21.9867 19.1364 21.9878 19.0036C21.989 18.8709 22.0166 18.7396 22.069 18.6176C22.1214 18.4956 22.1976 18.3853 22.2931 18.293L23.5861 17L22.2931 15.707C22.1109 15.5184 22.0101 15.2658 22.0124 15.0036C22.0147 14.7414 22.1199 14.4906 22.3053 14.3052C22.4907 14.1198 22.7415 14.0146 23.0037 14.0124C23.2659 14.0101 23.5185 14.1109 23.7071 14.293L25.0001 15.586L26.2931 14.293C26.4806 14.1056 26.7349 14.0002 27.0001 14.0002C27.2652 14.0002 27.5196 14.1056 27.7071 14.293Z" fill="#C7FEFF"/>
</svg>
