<svg width="10" height="11" viewBox="0 0 10 11" fill="none" xmlns="http://www.w3.org/2000/svg">
<path fillRule="evenodd" clipRule="evenodd" d="M0.21934 10.2804C0.359965 10.4208 0.550589 10.4997 0.74934 10.4997C0.948091 10.4997 1.13871 10.4208 1.27934 10.2804L8.49934 3.06037V8.75037C8.49934 8.94928 8.57836 9.14004 8.71901 9.2807C8.85966 9.42135 9.05043 9.50037 9.24934 9.50037C9.44825 9.50037 9.63902 9.42135 9.77967 9.2807C9.92032 9.14004 9.99934 8.94928 9.99934 8.75037V1.25037C9.99934 1.05145 9.92032 0.860688 9.77967 0.720036C9.63902 0.579384 9.44825 0.500366 9.24934 0.500366H1.74934C1.55043 0.500366 1.35966 0.579384 1.21901 0.720036C1.07836 0.860688 0.99934 1.05145 0.99934 1.25037C0.99934 1.44928 1.07836 1.64004 1.21901 1.7807C1.35966 1.92135 1.55043 2.00037 1.74934 2.00037H7.43934L0.21934 9.22037C0.0788894 9.36099 0 9.55162 0 9.75037C0 9.94912 0.0788894 10.1397 0.21934 10.2804Z" fill="#888888"/>
</svg>
