<svg width="16" height="17" viewBox="0 0 16 17" fill="none" xmlns="http://www.w3.org/2000/svg">
<path d="M6.66699 7.83333V11.8333M9.33366 7.83333V11.8333M2.66699 5.16667H13.3337M12.667 5.16667L12.089 13.2613C12.065 13.5977 11.9145 13.9125 11.6677 14.1424C11.4209 14.3722 11.0962 14.5 10.759 14.5H5.24166C4.90442 14.5 4.5797 14.3722 4.33292 14.1424C4.08613 13.9125 3.9356 13.5977 3.91166 13.2613L3.33366 5.16667H12.667ZM10.0003 5.16667V3.16667C10.0003 2.98986 9.93009 2.82029 9.80506 2.69526C9.68004 2.57024 9.51047 2.5 9.33366 2.5H6.66699C6.49018 2.5 6.32061 2.57024 6.19559 2.69526C6.07056 2.82029 6.00033 2.98986 6.00033 3.16667V5.16667H10.0003Z" stroke="#4A5568" strokeLinejoin="round" stroke-linejoin="round"/>
</svg>
