<svg width="42" height="42" viewBox="0 0 42 42" fill="none" xmlns="http://www.w3.org/2000/svg">
<g clip-path="url(#clip0_110_1216)">
<path d="M21 41.9997C32.5662 41.9997 42 32.5662 42 21C42 9.43351 32.5665 0 21 0C9.43351 0 0 9.43351 0 20.9999C0 32.5662 9.43351 41.9997 21 41.9997Z" fill="white"/>
<path d="M26.0729 31.7419V27.5181H15.2076V31.7419L20.6402 36.5692L26.0729 31.7419Z" fill="#F0C290"/>
<path fillRule="evenodd" clipRule="evenodd" d="M20.9147 41.9998H21.0856C27.0177 41.976 32.3831 39.4709 36.194 35.4721C35.977 34.6158 35.3007 33.9272 34.4112 33.7175L26.9596 31.9606C26.847 31.9341 26.7435 31.8891 26.6466 31.8344L20.6113 35.3622L14.8113 31.6638C14.6612 31.8055 14.4748 31.9107 14.2631 31.9607L6.81153 33.7176C6.13813 33.8764 5.58696 34.3095 5.26465 34.8821C9.09982 39.2229 14.6958 41.9748 20.9147 41.9998Z" fill="#137492"/>
<path d="M15.2076 27.5181V31.9746C22.0513 34.4394 26.0729 28.2706 26.0729 28.2706V27.5181H15.2076V27.5181Z" fill="#F0C290"/>
<path d="M12.7925 13.6394L13.3185 25.2076C13.3676 26.2883 13.8978 27.2905 14.7635 27.9396L17.2594 29.8108C17.8863 30.2808 18.6488 30.5349 19.4324 30.5349H21.847C22.6307 30.5349 23.3931 30.2809 24.0201 29.8108L26.5159 27.9396C27.3817 27.2904 27.9118 26.2884 27.9609 25.2076L28.4869 13.6394C28.4868 13.6394 12.7925 13.6394 12.7925 13.6394Z" fill="#FFE1B2"/>
<path fillRule="evenodd" clipRule="evenodd" d="M22.1465 41.9688C21.7669 41.9894 21.3847 41.9998 21.0001 41.9998C20.3721 41.9998 19.7504 41.972 19.1362 41.9176L19.5078 36.5693H21.7714L22.1465 41.9688Z" fill="#4A5568"/>
<path d="M22.1497 35.3623H19.1315V36.4979C19.1315 36.8706 19.4336 37.1726 19.8063 37.1726H21.4747C21.8475 37.1726 22.1496 36.8706 22.1496 36.4979V35.3623H22.1497Z" fill="#4A5568"/>
<path d="M15.1228 30.3986L20.6402 35.3625C20.6402 35.3625 19.0951 36.1422 17.1882 37.7139C16.7949 38.038 16.1999 37.9067 15.9889 37.4428L13.3967 31.742L14.2168 30.5125C14.4208 30.2062 14.8492 30.1525 15.1228 30.3986Z" fill="#F3F6FF"/>
<path d="M26.1572 30.3986L20.6398 35.3625C20.6398 35.3625 22.185 36.1422 24.0918 37.7139C24.4851 38.038 25.0801 37.9067 25.2911 37.4428L27.8833 31.742L27.0632 30.5125C26.8591 30.2062 26.4308 30.1525 26.1572 30.3986Z" fill="#F3F6FF"/>
<path d="M24.3001 9.6422L24.866 13.6398C27.4491 14.1563 27.8214 18.2087 27.875 19.3662C27.8847 19.5762 27.9518 19.779 28.0658 19.9558L29.0514 21.4841C29.0514 21.4841 28.7141 18.9573 30.2587 17.2602C30.2587 17.2602 30.7891 7.22852 24.3001 9.6422Z" fill="#4E1E30"/>
<path d="M29.6561 21.2266L28.9749 23.9514C28.8941 24.2744 28.604 24.5009 28.271 24.5009C27.9051 24.5009 27.5966 24.2285 27.5512 23.8654L27.2027 21.0784C27.1095 20.3324 27.6911 19.6736 28.4429 19.6736H28.4435C29.2566 19.6737 29.8533 20.4377 29.6561 21.2266Z" fill="#FFE1B2"/>
<path d="M13.3719 8.56064L14.2647 9.17033C10.228 12.1497 10.9824 17.2598 10.9824 17.2598C12.1897 18.4666 12.1897 21.4837 12.1897 21.4837L13.3969 20.2769C13.3969 20.2769 12.931 16.7908 15.2078 15.4496C17.3205 14.2051 19.1691 14.8462 21.0555 14.8462C26.1108 14.8462 27.5256 12.9417 27.2804 10.6223C27.1535 9.42223 25.3179 6.92235 20.6405 7.00185C18.7528 7.03391 15.2079 7.60525 13.3719 8.56064Z" fill="#66273F"/>
<path d="M13.0197 14.3182C13.0197 14.3182 12.3783 11.7914 14.2647 9.17041C10.228 12.1498 10.9824 17.2599 10.9824 17.2599C12.1897 18.4667 12.1897 21.4838 12.1897 21.4838L13.3969 20.277C13.3969 20.277 12.931 16.7908 15.2078 15.4497C17.3205 14.2052 19.1691 14.8463 21.0555 14.8463C21.8776 14.8463 22.5941 14.7913 23.2322 14.6969C19.339 14.8274 17.044 11.8794 13.0197 14.3182Z" fill="#4E1E30"/>
<path d="M11.6232 21.2266L12.3044 23.9514C12.3851 24.2744 12.6752 24.5009 13.0082 24.5009C13.3741 24.5009 13.6827 24.2285 13.7281 23.8654L14.0765 21.0784C14.1698 20.3324 13.5882 19.6736 12.8364 19.6736H12.8358C12.0226 19.6737 11.426 20.4377 11.6232 21.2266Z" fill="#FFE1B2"/>
</g>
<rect x="0.5" y="0.5" width="41" height="41" rx="20.5" stroke="#F3F6FF"/>
<defs>
<clipPath id="clip0_110_1216">
<rect width="42" height="42" rx="21" fill="white"/>
</clipPath>
</defs>
</svg>
