<svg width="36" height="35" viewBox="0 0 36 35" fill="none" xmlns="http://www.w3.org/2000/svg">
<path d="M28.9507 6.00049L26.2346 20.7448L28.1747 21.1328C32.2811 18.1258 34.0432 6.00049 28.9507 6.00049Z" fill="#414141"/>
<path d="M28.9511 6.00027C28.272 5.58799 24.6883 4.54094 21.9669 6.00027C18.6203 7.79481 15.6941 14.2131 20.4149 20.7446C20.4216 20.7538 23.907 20.3566 23.907 20.3566L28.9511 6.00027Z" fill="#414141"/>
<path fillRule="evenodd" clipRule="evenodd" d="M28.9507 29.3211C27.8321 29.6012 26.6624 29.75 25.4591 29.75C24.2554 29.75 23.0854 29.6012 21.9666 29.3209V21.3684C22.7389 20.7852 22.7426 19.8211 22.7426 18.9342V18.0288H28.1747V18.9351H28.1958C28.1958 19.8144 28.1982 20.7702 28.9507 21.3548V29.3211Z" fill="#FFE1B2"/>
<path fillRule="evenodd" clipRule="evenodd" d="M28.563 29.4124C27.5626 29.6334 26.5238 29.75 25.4587 29.75C24.6665 29.75 23.8889 29.6855 23.1309 29.5615V25.8742C23.8373 26.0663 24.6246 26.1769 25.4589 26.1769C26.614 26.1769 27.6827 25.9694 28.563 25.6182V29.4124Z" fill="white"/>
<path d="M28.5628 23.0723C28.7044 23.1109 28.8319 23.1315 28.9508 23.1415V21.3542C28.1983 20.7695 28.1959 19.8138 28.1959 18.9344L28.1953 18.9119V18.0056L23.9067 18.0281L22.7427 18.4161C23.5187 19.2892 25.8953 22.3448 28.5628 23.0723Z" fill="#F0C290"/>
<path d="M30.891 12.9842C30.891 16.0914 27.8008 19.9684 25.4589 19.9684C23.1171 19.9684 20.0269 16.0914 20.0269 12.9842C20.0269 9.87697 22.4589 8.71606 25.4589 8.71606C28.459 8.71606 30.891 9.87697 30.891 12.9842Z" fill="#FFE1B2"/>
<path d="M26.2348 6.77661C26.0168 6.77661 25.309 7.02155 24.7305 7.23618L24.6828 7.1646C24.6828 7.1646 24.6029 7.22734 24.4647 7.33607C24.143 7.45825 23.9068 7.55259 23.9068 7.55259L23.9976 7.7039C22.5248 8.86421 19.1648 11.5185 18.8626 11.8207C18.4747 12.2087 21.1907 22.108 21.1907 16.4768C21.1907 11.7722 23.8044 10.8405 26.2348 10.2687C27.3341 10.01 27.6575 9.36335 27.7868 8.71668C27.9162 8.07001 26.6229 6.77661 26.2348 6.77661Z" fill="#414141"/>
<path d="M27.3993 9.10452C28.1106 11.6589 29.5333 12.8148 30.8671 13.1544C31.598 13.3404 31.2794 11.0446 31.2794 11.0446C31.2794 11.0446 30.2447 8.39317 30.1154 8.32855C29.9861 8.26386 28.9513 6.00049 28.9513 6.00049L26.6233 7.94056L27.3993 9.10452Z" fill="#414141"/>
<path fillRule="evenodd" clipRule="evenodd" d="M24.4204 29.7287L22.3921 20.9031C22.0287 21.4935 21.2878 21.9085 19.7673 21.9085H19.638C17.3516 21.9085 15.4851 23.7063 15.375 25.9655C17.8008 28.1522 20.9548 29.5454 24.4204 29.7287Z" fill="#137492"/>
<path fillRule="evenodd" clipRule="evenodd" d="M35.5143 25.6459C35.2529 23.5392 33.4563 21.9088 31.2789 21.9088H31.1496C29.6291 21.9088 28.8882 21.4937 28.5248 20.9033L26.5002 29.7125C29.9928 29.4611 33.1475 27.9555 35.5143 25.6459Z" fill="#137492"/>
<path d="M30.3135 13.0198C30.9484 12.8743 31.3643 13.1852 31.3643 13.7959C31.3643 14.6042 30.5105 16.5847 29.613 15.3479C28.7154 14.1111 30.3135 13.0198 30.3135 13.0198Z" fill="#FFE1B2"/>
<path d="M4.41223 19.5025C3.24474 16.5571 0.792364 13.8915 3.87831 8.52224C5.14926 6.31089 7.09063 4.85247 9.09616 5.34625C11.1017 4.85253 13.0431 6.31094 14.314 8.52224C17.3998 13.8915 14.9476 16.5571 13.78 19.5025L9.09632 19.5141L4.41239 19.5025H4.41223Z" fill="#414141"/>
<path fillRule="evenodd" clipRule="evenodd" d="M17.6257 26.8326C15.2598 28.6606 12.2967 29.7501 9.0873 29.7501C5.87782 29.7501 2.91469 28.6606 0.548828 26.8326C0.639275 26.4434 0.725266 26.0547 0.804341 25.6972C0.983927 24.8854 1.12785 24.2348 1.20731 24.1065C2.2064 22.4934 3.44662 21.9197 4.53689 21.4154C5.89927 20.7853 7.02749 20.2634 7.15848 17.957C7.15848 17.957 8.1963 18.752 9.04796 18.7444C9.89956 18.7368 11.0149 17.9045 11.0149 17.9045C11.1464 20.2171 12.2783 20.7518 13.644 21.3971C14.7325 21.9114 15.9696 22.4958 16.9671 24.1065C17.0466 24.2346 17.1903 24.8846 17.3698 25.6958C17.449 26.0537 17.5351 26.4429 17.6257 26.8326Z" fill="#FFE1B2"/>
<path d="M11.0754 18.4914C11.0475 18.3092 11.0269 18.1144 11.015 17.9045C11.015 17.9045 9.89973 18.7368 9.04812 18.7444C8.19646 18.752 7.15864 17.957 7.15864 17.957C7.14661 18.1708 7.1255 18.3685 7.09668 18.553C7.1185 18.5703 7.14016 18.5878 7.16236 18.6048L7.16209 18.6078C7.22766 18.6649 8.22457 19.5222 9.04796 19.5135C9.87134 19.5221 10.8681 18.6648 10.9338 18.6078L10.9337 18.6048C10.982 18.5678 11.0289 18.5297 11.0753 18.4915L11.0754 18.4914Z" fill="#F0C290"/>
<path d="M7.16031 17.9609C7.22588 18.0103 8.22279 18.753 9.04618 18.7455C9.86956 18.753 10.8664 18.0102 10.932 17.9609C12.1766 17.2353 13.1978 15.0961 12.9673 12.7778C12.7785 10.8787 10.7241 13.6633 9.2932 9.74487C7.26805 13.9871 5.34456 11.4777 5.12526 13.0854C4.88353 14.8568 5.87804 17.0857 7.16031 17.961V17.9609Z" fill="#FFE1B2"/>
<path fillRule="evenodd" clipRule="evenodd" d="M17.6695 26.7985C15.2964 28.6471 12.3164 29.7501 9.08711 29.7501C5.85582 29.7501 2.87424 28.6458 0.500488 26.7952C0.62817 26.1276 0.748087 25.4092 0.853663 24.7767C1.00999 23.8401 1.13488 23.0919 1.20696 22.9761C1.7654 22.0782 2.91904 21.7597 3.99313 21.4631C4.55972 21.3066 5.10417 21.1563 5.52745 20.9302L5.52782 20.9307C7.80044 28.2212 10.6436 27.7494 12.5511 20.8289C12.9639 21.0505 13.5347 21.2044 14.132 21.3654C15.3098 21.6828 16.5908 22.0281 16.9666 22.9761C17.01 23.0855 17.1084 23.657 17.2381 24.4112C17.3605 25.1227 17.5109 25.9967 17.6695 26.7985ZM5.5276 20.9301C5.52755 20.9302 5.5275 20.9302 5.52745 20.9302L5.52738 20.9301H5.5276ZM5.5276 20.9301C5.52764 20.9301 5.52767 20.9301 5.52771 20.9301V20.9301H5.5276Z" fill="#137492"/>
<path d="M6.34608 20.2424C6.26645 22.3955 6.63253 25.4459 9.04844 26.2254C6.77396 26.3205 5.29803 23.0433 3.6167 22.185L6.34602 20.2426V20.2424H6.34608Z" fill="#F3F6FF"/>
<path d="M11.8859 20.2424C11.9694 22.3955 11.5851 25.4459 9.0481 26.2254C11.4365 26.3205 12.9864 23.0433 14.7516 22.185L11.8858 20.2426L11.8859 20.2424Z" fill="#F3F6FF"/>
<path d="M23.0731 24.7419V20.5181H12.2078V24.7419L17.6404 29.5692L23.0731 24.7419Z" fill="#FFE1B2"/>
<path fillRule="evenodd" clipRule="evenodd" d="M17.9149 34.9998H18.0858C24.0179 34.976 29.3833 32.4709 33.1943 28.4721C32.9772 27.6158 32.3009 26.9272 31.4114 26.7175L23.9598 24.9606C23.8473 24.9341 23.7438 24.8891 23.6469 24.8344L17.6116 28.3622L11.8116 24.6638C11.6614 24.8055 11.475 24.9107 11.2634 24.9607L3.81178 26.7176C3.13838 26.8764 2.58721 27.3095 2.26489 27.8821C6.10006 32.2229 11.696 34.9748 17.9149 34.9998Z" fill="#4A5568"/>
<path d="M12.2078 20.5181V24.9746C19.0514 27.4394 23.0731 21.2706 23.0731 21.2706V20.5181H12.2078V20.5181Z" fill="#F0C290"/>
<path d="M9.79272 6.6394L10.3187 18.2076C10.3678 19.2883 10.8979 20.2905 11.7637 20.9396L14.2595 22.8108C14.8865 23.2808 15.6489 23.5349 16.4326 23.5349H18.8472C19.6309 23.5349 20.3933 23.2809 21.0203 22.8108L23.5161 20.9396C24.3819 20.2904 24.912 19.2884 24.9611 18.2076L25.4871 6.6394C25.487 6.6394 9.79272 6.6394 9.79272 6.6394Z" fill="#FFE1B2"/>
<path fillRule="evenodd" clipRule="evenodd" d="M19.1468 34.9688C18.7671 34.9894 18.3849 34.9998 18.0003 34.9998C17.3724 34.9998 16.7507 34.972 16.1365 34.9176L16.508 29.5693H18.7717L19.1468 34.9688Z" fill="#137492"/>
<path d="M19.15 28.3623H16.1318V29.4979C16.1318 29.8706 16.434 30.1726 16.8067 30.1726H18.4751C18.8478 30.1726 19.1499 29.8706 19.1499 29.4979V28.3623H19.15Z" fill="#137492"/>
<path d="M12.123 23.3986L17.6405 28.3625C17.6405 28.3625 16.0953 29.1422 14.1885 30.7139C13.7952 31.038 13.2001 30.9067 12.9892 30.4428L10.397 24.742L11.217 23.5125C11.4211 23.2062 11.8494 23.1525 12.123 23.3986Z" fill="#F3F6FF"/>
<path d="M23.1573 23.3986L17.6399 28.3625C17.6399 28.3625 19.1851 29.1422 21.0919 30.7139C21.4852 31.038 22.0802 30.9067 22.2912 30.4428L24.8834 24.742L24.0634 23.5125C23.8592 23.2062 23.4309 23.1525 23.1573 23.3986Z" fill="#F3F6FF"/>
<path d="M21.3003 2.6422L21.8662 6.63982C24.4494 7.15627 24.8216 11.2087 24.8752 12.3662C24.885 12.5762 24.952 12.779 25.066 12.9558L26.0516 14.4841C26.0516 14.4841 25.7143 11.9573 27.2589 10.2602C27.259 10.2602 27.7893 0.228525 21.3003 2.6422Z" fill="#4E1E30"/>
<path d="M26.6563 14.2266L25.9751 16.9514C25.8944 17.2744 25.6042 17.5009 25.2713 17.5009C24.9053 17.5009 24.5968 17.2285 24.5514 16.8654L24.203 14.0784C24.1097 13.3324 24.6913 12.6736 25.4431 12.6736H25.4437C26.2569 12.6737 26.8535 13.4377 26.6563 14.2266Z" fill="#FFE1B2"/>
<path d="M10.3721 1.56064L11.2649 2.17033C7.22814 5.14967 7.98262 10.2598 7.98262 10.2598C9.18986 11.4666 9.18986 14.4837 9.18986 14.4837L10.3971 13.2769C10.3971 13.2769 9.9312 9.79075 12.208 8.44962C14.3207 7.20508 16.1693 7.84622 18.0556 7.84622C23.111 7.84622 24.5258 5.94168 24.2806 3.62234C24.1537 2.42223 22.3181 -0.077649 17.6407 0.00185223C15.753 0.0339125 12.2081 0.605255 10.3721 1.56064Z" fill="#66273F"/>
<path d="M10.0199 7.31823C10.0199 7.31823 9.37853 4.79142 11.2649 2.17041C7.22814 5.14976 7.98262 10.2599 7.98262 10.2599C9.18986 11.4667 9.18986 14.4838 9.18986 14.4838L10.3971 13.277C10.3971 13.277 9.9312 9.79084 12.208 8.44971C14.3207 7.20517 16.1693 7.8463 18.0556 7.8463C18.8778 7.8463 19.5943 7.79128 20.2324 7.69694C16.3392 7.82737 14.0442 4.8794 10.0199 7.31823Z" fill="#4E1E30"/>
<path d="M8.62338 14.2266L9.30458 16.9514C9.38531 17.2744 9.67543 17.5009 10.0084 17.5009C10.3743 17.5009 10.6829 17.2285 10.7283 16.8654L11.0767 14.0784C11.17 13.3324 10.5884 12.6736 9.83655 12.6736H9.836C9.0228 12.6737 8.42617 13.4377 8.62338 14.2266Z" fill="#FFE1B2"/>
</svg>
