<svg width="12" height="13" viewBox="0 0 12 13" fill="none" xmlns="http://www.w3.org/2000/svg">
<path d="M8.76731 4.63685L8.76744 4.63671C8.89911 4.50364 9.11456 4.50345 9.24797 4.63685L9.86671 5.25551C9.99829 5.38708 9.99868 5.60264 9.86508 5.73773C9.86506 5.73775 9.86504 5.73777 9.86501 5.73779L5.24025 10.3651L5.24013 10.3652C5.10846 10.4983 4.89301 10.4985 4.7596 10.3651C4.7596 10.3651 4.7596 10.3651 4.7596 10.3651L2.13467 7.73893L2.13466 7.73893C2.00133 7.60561 2.00133 7.39009 2.13466 7.25677L2.75496 6.63655L2.75509 6.63642C2.88676 6.50335 3.1022 6.50316 3.23561 6.63654C3.23561 6.63655 3.23562 6.63655 3.23562 6.63655L4.97619 8.37847L5.0007 8.403L5.02521 8.37849L8.76731 4.63685ZM4.84885 6.86269L4.84868 6.86252L3.09872 5.10965L3.0987 5.10963C3.0155 5.02644 3.01519 4.89052 3.0988 4.80547C3.09883 4.80544 3.09886 4.80541 3.09889 4.80537L3.80649 4.09786L3.80649 4.09786L3.80669 4.09767C3.88998 4.01304 4.02711 4.01304 4.1104 4.09767L4.11058 4.09784L4.97618 4.9649L5.00069 4.98945L5.02521 4.96492L7.39234 2.59808L7.39254 2.59789C7.47583 2.51326 7.61296 2.51326 7.69625 2.59789L7.69642 2.59806L8.40265 3.30576L8.40268 3.30579C8.48588 3.38898 8.48619 3.52491 8.40257 3.60996C8.40254 3.60999 8.40251 3.61002 8.40248 3.61004L5.15275 6.8625L5.15256 6.86269C5.06927 6.94732 4.93215 6.94732 4.84885 6.86269Z" fill="#4A5568" stroke="#7E7E7E" strokeWidth="0.0693188"/>
</svg>
