<svg width="16" height="17" viewBox="0 0 16 17" fill="none" xmlns="http://www.w3.org/2000/svg">
<path d="M5.33366 11.1667H4.00033C3.6467 11.1667 3.30756 11.0263 3.05752 10.7762C2.80747 10.5262 2.66699 10.187 2.66699 9.83341V4.50008C2.66699 4.14646 2.80747 3.80732 3.05752 3.55727C3.30756 3.30722 3.6467 3.16675 4.00033 3.16675H9.33366C9.68728 3.16675 10.0264 3.30722 10.2765 3.55727C10.5265 3.80732 10.667 4.14646 10.667 4.50008V5.83341M6.66699 13.8334H12.0003C12.3539 13.8334 12.6931 13.6929 12.9431 13.4429C13.1932 13.1928 13.3337 12.8537 13.3337 12.5001V7.16675C13.3337 6.81313 13.1932 6.47399 12.9431 6.22394C12.6931 5.97389 12.3539 5.83341 12.0003 5.83341H6.66699C6.31337 5.83341 5.97423 5.97389 5.72418 6.22394C5.47413 6.47399 5.33366 6.81313 5.33366 7.16675V12.5001C5.33366 12.8537 5.47413 13.1928 5.72418 13.4429C5.97423 13.6929 6.31337 13.8334 6.66699 13.8334Z" stroke="#4A5568" strokeLinejoin="round" stroke-linejoin="round"/>
</svg>
