<svg width="44" height="44" viewBox="0 0 44 44" fill="none" xmlns="http://www.w3.org/2000/svg">
<rect width="44" height="44" rx="12" fill="#F3F6FF"/>
<path d="M16.1663 22.0001H16.1747M21.9997 22.0001H22.008M27.833 22.0001H27.8413M16.9997 22.0001C16.9997 22.2211 16.9119 22.4331 16.7556 22.5893C16.5993 22.7456 16.3874 22.8334 16.1663 22.8334C15.9453 22.8334 15.7334 22.7456 15.5771 22.5893C15.4208 22.4331 15.333 22.2211 15.333 22.0001C15.333 21.7791 15.4208 21.5671 15.5771 21.4108C15.7334 21.2545 15.9453 21.1667 16.1663 21.1667C16.3874 21.1667 16.5993 21.2545 16.7556 21.4108C16.9119 21.5671 16.9997 21.7791 16.9997 22.0001ZM22.833 22.0001C22.833 22.2211 22.7452 22.4331 22.5889 22.5893C22.4326 22.7456 22.2207 22.8334 21.9997 22.8334C21.7787 22.8334 21.5667 22.7456 21.4104 22.5893C21.2541 22.4331 21.1663 22.2211 21.1663 22.0001C21.1663 21.7791 21.2541 21.5671 21.4104 21.4108C21.5667 21.2545 21.7787 21.1667 21.9997 21.1667C22.2207 21.1667 22.4326 21.2545 22.5889 21.4108C22.7452 21.5671 22.833 21.7791 22.833 22.0001ZM28.6663 22.0001C28.6663 22.2211 28.5785 22.4331 28.4223 22.5893C28.266 22.7456 28.054 22.8334 27.833 22.8334C27.612 22.8334 27.4 22.7456 27.2438 22.5893C27.0875 22.4331 26.9997 22.2211 26.9997 22.0001C26.9997 21.7791 27.0875 21.5671 27.2438 21.4108C27.4 21.2545 27.612 21.1667 27.833 21.1667C28.054 21.1667 28.266 21.2545 28.4223 21.4108C28.5785 21.5671 28.6663 21.7791 28.6663 22.0001Z" stroke="#7E7E7E" strokeWidth="2" strokeLinejoin="round" stroke-linejoin="round"/>
</svg>
