<svg width="41" height="40" viewBox="0 0 41 40" fill="none" xmlns="http://www.w3.org/2000/svg">
<rect x="0.5" width="40" height="40" rx="20" fill="#F3F6FF"/>
<path d="M18.7323 20.932C19.2011 21.4008 19.837 21.6642 20.5 21.6642C21.1631 21.6642 21.7989 21.4008 22.2678 20.932C22.7366 20.4631 23 19.8272 23 19.1642V14.1642C23 13.5011 22.7366 12.8653 22.2678 12.3964C21.7989 11.9276 21.1631 11.6642 20.5 11.6642C19.837 11.6642 19.2011 11.9276 18.7323 12.3964C18.2634 12.8653 18 13.5011 18 14.1642V19.1642C18 19.8272 18.2634 20.4631 18.7323 20.932Z" fill="#7E7E7E"/>
<path d="M26.3334 19.1642C26.3334 20.7113 25.7188 22.195 24.6248 23.289C23.5308 24.3829 22.0471 24.9975 20.5 24.9975M20.5 24.9975C18.9529 24.9975 17.4692 24.3829 16.3752 23.289C15.2813 22.195 14.6667 20.7113 14.6667 19.1642M20.5 24.9975V28.3309M20.5 28.3309H17.1667M20.5 28.3309H23.8334M20.5 21.6642C19.837 21.6642 19.2011 21.4008 18.7323 20.932C18.2634 20.4631 18 19.8272 18 19.1642V14.1642C18 13.5011 18.2634 12.8653 18.7323 12.3964C19.2011 11.9276 19.837 11.6642 20.5 11.6642C21.1631 11.6642 21.7989 11.9276 22.2678 12.3964C22.7366 12.8653 23 13.5011 23 14.1642V19.1642C23 19.8272 22.7366 20.4631 22.2678 20.932C21.7989 21.4008 21.1631 21.6642 20.5 21.6642Z" stroke="#7E7E7E" strokeWidth="2" strokeLinejoin="round" stroke-linejoin="round"/>
<path d="M22.9168 21.6888L24.7788 23.387L26.5137 24.9694M22.9175 21.6894L21.0555 19.9912L20.1249 19.1424L14.6667 14.1642" stroke="#7E7E7E" strokeWidth="2" strokeLinejoin="round" stroke-linejoin="round"/>
</svg>
