<svg width="42" height="42" viewBox="0 0 42 42" fill="none" xmlns="http://www.w3.org/2000/svg">
<rect width="42" height="42" rx="21" fill="#137492"/>
<path d="M25.414 18L28.707 14.707C28.8892 14.5184 28.99 14.2658 28.9877 14.0036C28.9854 13.7414 28.8802 13.4906 28.6948 13.3052C28.5094 13.1198 28.2586 13.0146 27.9964 13.0124C27.7342 13.0101 27.4816 13.1109 27.293 13.293L24 16.586V15C24 14.7348 23.8946 14.4805 23.7071 14.2929C23.5196 14.1054 23.2652 14 23 14C22.7348 14 22.4804 14.1054 22.2929 14.2929C22.1054 14.4805 22 14.7348 22 15V19.003C22 19.2004 22.0587 19.3933 22.1685 19.5573C22.2784 19.7213 22.4345 19.8489 22.617 19.924C22.7384 19.9744 22.8686 20.0002 23 20H27C27.2652 20 27.5196 19.8947 27.7071 19.7071C27.8946 19.5196 28 19.2653 28 19C28 18.7348 27.8946 18.4805 27.7071 18.2929C27.5196 18.1054 27.2652 18 27 18H25.414Z" fill="#C7FEFF"/>
<path d="M13 14C13 13.7348 13.1054 13.4804 13.2929 13.2929C13.4804 13.1054 13.7348 13 14 13H16.153C16.3897 13.0001 16.6187 13.0842 16.7992 13.2373C16.9798 13.3903 17.1002 13.6025 17.139 13.836L17.879 18.271C17.9144 18.4822 17.881 18.6992 17.7838 18.89C17.6866 19.0809 17.5306 19.2354 17.339 19.331L15.791 20.104C16.3461 21.4797 17.1728 22.7293 18.2218 23.7782C19.2707 24.8272 20.5203 25.6539 21.896 26.209L22.67 24.661C22.7655 24.4695 22.9199 24.3138 23.1106 24.2166C23.3012 24.1194 23.5179 24.0859 23.729 24.121L28.164 24.861C28.3975 24.8998 28.6097 25.0202 28.7627 25.2008C28.9158 25.3813 28.9999 25.6103 29 25.847V28C29 28.2652 28.8946 28.5196 28.7071 28.7071C28.5196 28.8946 28.2652 29 28 29H26C18.82 29 13 23.18 13 16V14Z" fill="#C7FEFF"/>
</svg>
