<svg width="350" height="538" viewBox="0 0 350 538" fill="none" xmlns="http://www.w3.org/2000/svg">
<rect width="350" height="538" fill="#137492"/>
<path d="M140.359 466.383C140.062 468.466 133.334 470.15 125.076 470.15C116.634 470.15 109.779 468.393 109.779 466.238C109.51 466.238 109.244 466.307 108.997 466.441C108.749 466.575 108.525 466.771 108.337 467.018C108.15 467.264 108.003 467.556 107.905 467.876C107.807 468.196 107.761 468.538 107.768 468.882L108.717 515.755C108.726 516.179 108.816 516.593 108.979 516.963C109.142 517.332 109.373 517.645 109.652 517.874C114.335 521.616 119.777 523.508 125.297 523.315C130.816 523.121 136.169 520.851 140.685 516.787C140.957 516.55 141.179 516.231 141.332 515.859C141.485 515.486 141.565 515.071 141.563 514.65V468.574C141.562 468.095 141.447 467.628 141.231 467.236C141.016 466.844 140.711 466.546 140.359 466.383ZM122.881 511.897C121.306 512.066 119.725 511.683 118.308 510.79C116.891 509.896 115.69 508.526 114.836 506.826C112.477 502.551 111.517 497.268 112.159 492.101C112.533 488.75 113.372 485.512 114.637 482.538C115.37 480.852 116.469 479.473 117.801 478.566C119.133 477.66 120.641 477.266 122.144 477.431C122.841 477.404 123.523 477.679 124.082 478.212C124.64 478.745 125.04 479.504 125.218 480.365C125.321 481.124 125.276 481.905 125.089 482.637C124.901 483.37 124.576 484.032 124.142 484.567C121.847 487.555 116.592 495.778 122.187 501.882C127.413 507.587 126.804 511.336 122.881 511.897Z" fill="#C7FEFF"/>
<path d="M141.01 362.132C131.69 362.295 122.37 362.838 113.079 363.834C114.54 361.186 115.522 358.154 115.954 354.96C116.719 345.832 127.342 337.355 127.342 337.355L127.299 334.91L136.605 332.791C138.145 336.323 140.351 339.306 143.023 341.47C145.695 343.633 148.747 344.909 151.902 345.179C162.61 345.904 200.881 324.098 205.697 321.055C240.37 345.505 223.798 375.172 223.798 375.172C221.82 373.559 219.693 372.263 217.467 371.314C215.257 370.3 212.991 369.503 210.725 368.761C206.164 367.366 201.547 366.37 196.901 365.555C187.638 363.907 178.318 363.11 168.984 362.549C159.664 362.078 150.344 361.915 141.01 362.132Z" fill="#C7FEFF"/>
<path d="M209.52 445.264H86.0393C86.0393 445.264 88.0363 414.42 86.7901 410.363C92.6538 386.238 104.991 375.824 104.991 375.824C108.033 372.232 110.747 368.209 113.078 363.834C122.398 364.25 131.704 364.619 140.996 364.939C150.301 365.301 159.593 365.627 168.87 366.17C173.516 366.387 178.148 366.695 182.779 367.058C187.411 367.384 192.042 367.855 196.66 368.362C201.263 368.923 205.881 369.539 210.441 370.499C215.044 371.241 219.541 372.815 223.798 375.172C234.251 380.714 234.761 400.275 234.761 400.275C237.82 438.092 209.52 445.264 209.52 445.264Z" fill="#C7FEFF"/>
<path d="M74.1436 154.791C75.5079 153.619 76.7523 152.234 77.8476 150.667C78.9197 149.146 79.8387 147.46 80.5831 145.647C81.3195 143.821 81.8995 141.898 82.3131 139.912C82.5704 138.924 82.6643 137.883 82.8723 136.858C83.0275 135.822 83.1165 134.769 83.3044 133.701C83.4368 134.771 83.5239 135.85 83.5653 136.932C83.5719 138.025 83.5152 139.116 83.3956 140.198C83.1556 142.393 82.6283 144.52 81.8357 146.49C81.0214 148.458 79.9299 150.216 78.6159 151.676C77.3386 153.151 75.8059 154.219 74.1436 154.791Z" fill="#C7FEFF"/>
<path d="M108.562 182.502C108.398 180.284 108.426 178.051 108.645 175.841C108.746 174.709 108.929 173.592 109.191 172.504C109.497 171.378 109.972 170.339 110.589 169.445C111.862 167.602 113.645 166.462 115.562 166.266C116.526 166.164 117.497 166.287 118.427 166.628C119.242 166.917 120.063 167.173 120.885 167.411C124.107 168.432 127.446 168.717 130.746 168.256C132.285 168.076 133.777 167.478 135.121 166.502C136.466 165.527 137.632 164.196 138.542 162.598L138.587 162.522L138.65 162.423C139.072 161.741 139.43 160.996 139.715 160.206C140.623 157.754 140.801 154.963 140.218 152.354L140.205 152.293C140.192 152.23 140.183 152.167 140.177 152.102C140.084 151.028 140.071 149.944 140.137 148.866C140.192 147.761 140.359 146.67 140.635 145.621C140.931 144.452 141.428 143.383 142.09 142.492C142.827 141.589 143.746 140.965 144.744 140.689C144.816 140.668 144.889 140.657 144.963 140.655L145.045 140.654C146.483 140.684 147.901 140.215 149.146 139.297C149.648 138.89 150.031 138.282 150.234 137.568C150.33 137.196 150.384 136.808 150.393 136.417L150.403 136.115L150.41 135.963L150.414 135.887C150.409 135.82 150.425 135.991 150.425 135.971L150.426 135.974C150.392 135.799 150.349 135.628 150.297 135.462C149.61 133.617 148.74 131.892 147.71 130.33C146.578 128.543 145.605 126.601 144.81 124.538C143.232 120.422 142.487 115.866 142.643 111.286C142.743 106.866 143.17 102.468 143.919 98.1507C143.629 102.52 143.587 106.91 143.794 111.287C143.969 115.535 144.912 119.674 146.55 123.376C147.353 125.209 148.313 126.921 149.413 128.482C150.682 130.194 151.744 132.137 152.565 134.249C152.682 134.588 152.777 134.938 152.848 135.297L152.865 135.401C152.874 135.462 152.881 135.524 152.884 135.586L152.886 135.716L152.889 135.977L152.891 136.499C152.889 137.206 152.807 137.909 152.646 138.585C152.296 139.97 151.606 141.174 150.678 142.018C148.998 143.451 147.016 144.196 144.996 144.151L145.296 144.115C144.83 144.26 144.401 144.555 144.051 144.974C143.694 145.489 143.428 146.097 143.272 146.756C143.079 147.523 142.966 148.32 142.936 149.125C142.893 149.954 142.908 150.785 142.98 151.611L142.939 151.36C143.444 153.652 143.501 156.068 143.104 158.395C142.91 159.546 142.609 160.663 142.208 161.722C141.804 162.815 141.291 163.837 140.683 164.762L140.79 164.588C139.647 166.555 138.183 168.181 136.5 169.353C134.817 170.524 132.954 171.214 131.042 171.374C127.451 171.716 123.842 171.196 120.4 169.841C119.549 169.536 118.714 169.174 117.883 168.801C117.167 168.464 116.409 168.296 115.646 168.306C114.077 168.343 112.573 169.111 111.416 170.465C110.829 171.16 110.355 171.996 110.018 172.924C109.695 173.912 109.443 174.937 109.266 175.984C108.885 178.127 108.649 180.307 108.562 182.502Z" fill="#C7FEFF"/>
<path d="M104.865 144.358C105.081 145.924 105.409 147.462 105.845 148.952C106.264 150.395 106.79 151.784 107.417 153.098C108.047 154.416 108.763 155.664 109.558 156.827C110.347 158.03 111.244 159.115 112.131 160.332C110.911 159.755 109.778 158.91 108.784 157.836C107.768 156.759 106.897 155.475 106.207 154.036C105.521 152.584 105.04 150.991 104.784 149.328C104.502 147.686 104.529 145.983 104.865 144.358Z" fill="#C7FEFF"/>
<path d="M77.2769 152.345C76.5792 151.774 75.8426 151.285 75.0762 150.883C74.708 150.685 74.3205 150.552 73.9243 150.488C73.5392 150.427 73.2059 150.534 73.1248 150.874C73.0366 151.831 73.175 152.799 73.522 153.654C73.8382 154.615 74.194 155.554 74.588 156.467L74.4835 156.286C76.9117 158.888 79.4531 161.362 82.0129 163.753C84.5965 166.109 87.2094 168.408 89.9276 170.459C92.6088 172.542 95.4004 174.383 98.2823 175.969C101.094 177.525 104.057 178.586 107.091 179.125L107.156 179.135C107.324 179.161 107.486 179.229 107.632 179.337C107.779 179.444 107.907 179.588 108.01 179.76C108.641 180.789 109.081 181.988 109.297 183.267C109.528 184.689 109.347 186.169 108.787 187.432C108.246 188.566 107.487 189.503 106.581 190.153C106.097 190.499 105.698 191.011 105.428 191.631C104.844 193.157 104.595 194.857 104.705 196.55C104.763 198.426 104.987 200.288 105.371 202.101L105.397 202.221C105.461 202.523 105.449 202.844 105.365 203.138C105.204 203.727 104.954 204.27 104.63 204.736C104.28 205.239 103.839 205.625 103.345 205.858C102.427 206.211 101.438 206.094 100.586 205.531C99.3998 204.671 98.3457 203.542 97.4755 202.199C97.421 202.123 97.3729 202.041 97.3317 201.952L97.3085 201.901C96.9145 201.093 96.4538 200.342 95.9343 199.66C95.3869 198.93 94.7962 198.254 94.1675 197.64C92.8768 196.415 91.4705 195.403 89.9818 194.627L89.9343 194.602C89.7511 194.505 89.5919 194.346 89.4736 194.142C88.0098 191.608 86.3869 189.116 84.7289 186.723C83.075 184.311 81.3581 181.961 79.5267 179.77C77.7329 177.523 75.8124 175.448 73.7807 173.561C71.7394 171.665 69.5199 170.105 67.1743 168.917C69.6551 169.726 72.0266 171.007 74.2093 172.717C76.4129 174.397 78.5117 176.291 80.4872 178.384C82.4681 180.468 84.3348 182.716 86.144 185.036C87.934 187.393 89.6497 189.789 91.2943 192.376L90.7866 191.892C92.5121 192.665 94.144 193.744 95.634 195.099C96.3845 195.79 97.0919 196.554 97.7499 197.386C98.4484 198.251 99.0652 199.218 99.5879 200.266L99.4213 199.968C100.084 200.939 100.871 201.761 101.747 202.398C101.954 202.545 102.191 202.606 102.426 202.574C102.462 202.531 102.516 202.532 102.583 202.414C102.648 202.308 102.703 202.193 102.75 202.073L102.743 203.109C102.275 201.011 101.998 198.851 101.918 196.672C101.767 194.302 102.135 191.925 102.981 189.808C103.504 188.661 104.255 187.711 105.157 187.053C105.646 186.722 106.063 186.241 106.37 185.652C106.604 185.138 106.68 184.53 106.581 183.949C106.456 183.239 106.219 182.57 105.884 181.983L106.802 182.617C103.497 182.017 100.281 180.784 97.2621 178.96C94.2964 177.231 91.4479 175.191 88.7461 172.86C86.0472 170.591 83.449 168.131 80.9634 165.494C78.4621 162.898 76.0717 160.132 73.8027 157.207L73.7732 157.169C73.7414 157.127 73.7159 157.079 73.6979 157.025C73.3543 156.032 73.0524 155.015 72.7936 153.98C72.6622 153.45 72.5635 152.907 72.4984 152.357C72.3995 151.754 72.4458 151.127 72.6312 150.558C72.695 150.398 72.7855 150.257 72.8964 150.147C73.0073 150.036 73.1359 149.958 73.273 149.918C73.5106 149.854 73.7563 149.858 73.9928 149.929C74.4152 150.061 74.8214 150.267 75.1999 150.54C75.9333 151.061 76.6285 151.665 77.2769 152.345Z" fill="#C7FEFF"/>
<path d="M112.132 167.581C115.593 169.099 118.825 171.361 121.689 174.271C124.583 177.163 127.194 180.49 129.465 184.18C130.577 186.054 131.612 188 132.566 190.01C133.026 191.028 133.553 192.004 133.959 193.059L135.172 196.232C136.019 198.329 136.569 200.584 137.282 202.757C137.879 204.981 138.374 207.25 138.925 209.499C138.936 209.545 138.943 209.593 138.946 209.642L138.951 209.727C139.19 214.318 139.621 218.89 140.242 223.422C140.544 225.668 140.937 227.892 141.42 230.085C141.845 232.207 142.486 234.249 143.326 236.159C143.368 236.248 143.403 236.343 143.43 236.442L143.44 236.482C144.304 239.815 145.229 243.156 146.216 246.434C146.708 248.076 147.225 249.701 147.769 251.295C148.286 252.863 148.878 254.388 149.544 255.861C149.689 256.168 149.752 256.527 149.725 256.885C149.698 257.242 149.582 257.579 149.394 257.845C147.753 260.139 146.072 262.239 144.308 264.296C142.542 266.334 140.709 268.278 138.81 270.129C135 273.926 130.785 277.007 126.294 279.277L127.22 277.577C127.272 284.948 127.225 292.308 127.159 299.678L126.986 310.741C126.883 314.456 126.829 318.078 126.451 321.955C126.445 322.025 126.433 322.094 126.418 322.162L126.405 322.215C126.29 322.702 126.228 323.206 126.221 323.714C126.22 323.854 126.233 323.994 126.262 324.129C126.23 324.07 126.186 324.024 126.133 323.999C126.13 323.993 126.126 323.988 126.12 323.986C126.115 323.983 126.11 323.983 126.104 323.986C126.045 323.971 126.211 324.026 126.328 324.085C126.444 324.139 126.555 324.208 126.66 324.291C126.931 324.52 127.16 324.821 127.332 325.174C127.536 325.596 127.693 326.051 127.8 326.527C127.974 327.273 128.103 328.034 128.186 328.805C128.472 331.64 128.605 334.497 128.584 337.356C128.585 337.618 128.535 337.876 128.438 338.107C128.341 338.338 128.201 338.534 128.029 338.678L128.001 338.701C125.402 340.835 123.009 343.353 120.872 346.202C119.837 347.606 118.93 349.154 118.167 350.818L117.668 352.072L117.296 353.364C117.096 354.255 117.005 355.021 116.813 356.23C115.921 360.366 114.331 364.202 112.156 367.47C110.143 370.731 107.917 373.768 105.503 376.548L105.436 376.616L105.413 376.637C103.217 378.65 101.181 380.934 99.3333 383.455C97.4511 385.99 95.7249 388.707 94.17 391.582C92.6116 394.47 91.2209 397.5 90.0089 400.648C88.7779 403.799 87.7022 407.046 86.7883 410.369C87.5431 406.967 88.4734 403.632 89.5731 400.387C90.6875 397.135 91.9868 393.992 93.4605 390.983C94.9427 387.965 96.6049 385.097 98.4325 382.406C100.255 379.653 102.315 377.173 104.575 375.014L104.485 375.103C106.764 372.329 108.855 369.315 110.738 366.092C112.66 363.053 114.048 359.521 114.807 355.736C114.927 354.943 115.048 353.672 115.275 352.6L115.698 351.002L116.253 349.503C117.063 347.607 118.04 345.836 119.165 344.224C121.388 341.087 123.916 338.327 126.688 336.011L126.105 337.356C126.094 334.666 125.941 331.981 125.647 329.317C125.522 328.144 125.12 326.485 125.042 327.039C124.497 326.709 124.068 326.133 123.837 325.421C123.675 324.906 123.59 324.358 123.583 323.803C123.573 322.922 123.668 322.045 123.864 321.201L123.818 321.46C124.104 318.026 124.167 314.28 124.253 310.645L124.385 299.64L124.409 277.599C124.41 277.228 124.499 276.867 124.665 276.563C124.831 276.26 125.065 276.027 125.336 275.898C129.576 273.772 133.557 270.885 137.159 267.323C138.993 265.553 140.771 263.684 142.493 261.716C144.206 259.761 145.904 257.702 147.447 255.601L147.297 257.585C146.587 255.973 145.958 254.304 145.415 252.59C144.866 250.922 144.356 249.248 143.872 247.566C142.901 244.2 142.008 240.831 141.163 237.409L141.277 237.731C140.368 235.557 139.688 233.238 139.257 230.836C138.802 228.536 138.441 226.207 138.177 223.859C137.639 219.209 137.298 214.526 137.154 209.829L137.18 210.056C136.689 207.855 136.255 205.626 135.719 203.44C135.07 201.31 134.582 199.085 133.801 197.022C132.378 192.809 130.637 188.783 128.601 185.003C126.499 181.262 124.054 177.858 121.316 174.864C118.581 171.821 115.48 169.362 112.132 167.581Z" fill="#C7FEFF"/>
<path d="M72.9177 152.491C69.4397 156.806 66.2583 161.496 63.4086 166.509C60.4629 171.43 57.7226 176.552 55.0843 181.752C49.7712 192.095 44.702 202.773 40.2365 213.684C31.398 235.565 24.5739 259.268 22.0907 283.944C21.9279 285.48 21.7903 287.021 21.6738 288.557C21.5872 290.042 21.6349 291.65 21.6295 293.192L21.6631 302.535L21.7632 321.221C21.7963 333.675 21.7699 346.124 21.6838 358.57C21.6423 383.466 21.2095 408.343 20.5595 433.224L20.3414 432.343C22.0939 435.322 24.1177 438.023 26.3701 440.39C28.5957 442.79 31.1654 444.612 33.9358 445.756C36.7201 446.836 39.696 446.8 42.4639 445.654C45.2581 444.347 47.7975 442.281 49.9068 439.598C49.9201 439.581 49.936 439.568 49.9533 439.559C49.9706 439.551 49.9891 439.546 50.0077 439.547C50.0263 439.547 50.0447 439.552 50.0617 439.562C50.0788 439.571 50.0943 439.585 50.1072 439.602C50.1315 439.635 50.1454 439.679 50.1462 439.724C50.1469 439.769 50.1345 439.814 50.1113 439.848C48.1197 442.85 45.6164 445.229 42.7939 446.801C39.8584 448.323 36.6188 448.603 33.5496 447.601C30.5204 446.566 27.6781 444.784 25.1821 442.357C22.6693 439.99 20.4178 437.2 18.4886 434.063C18.3479 433.835 18.2711 433.554 18.2705 433.265L18.2704 433.18C18.2078 408.268 18.3623 383.351 18.9081 358.454C19.12 346.003 19.3873 333.556 19.7097 321.112L20.2504 302.452L20.5042 293.123C20.57 291.555 20.5428 290.043 20.6473 288.427C20.7834 286.867 20.9414 285.316 21.1213 283.773C22.6385 271.435 24.746 259.227 27.432 247.219C30.0771 235.146 33.6128 223.422 37.9913 212.204C39.1112 209.412 40.3281 206.682 41.5306 203.947L45.3291 195.933C47.9437 190.655 50.5483 185.367 53.3917 180.277C59.1116 170.184 65.0532 160.048 72.7489 152.2C72.7774 152.171 72.8136 152.157 72.8498 152.161C72.8861 152.165 72.9197 152.187 72.9435 152.223C72.9673 152.258 72.9795 152.304 72.9776 152.35C72.9757 152.397 72.9598 152.44 72.9332 152.472L72.9177 152.491Z" fill="#C7FEFF"/>
<path d="M55.7871 191.086C58.3973 188.924 61.2663 187.323 64.2805 186.345C67.3249 185.273 70.4834 184.827 73.6374 185.024C76.8548 185.272 79.9893 186.429 82.815 188.412C85.5516 190.49 87.7631 193.531 89.1858 197.171C87.0125 194.598 84.5269 192.494 81.8261 190.94C79.1481 189.628 76.3281 188.851 73.4652 188.637C70.5404 188.444 67.608 188.602 64.7062 189.107C61.7622 189.595 58.8037 190.263 55.7871 191.086Z" fill="#C7FEFF"/>
<path d="M49.791 202.479C47.1207 210.632 45.5338 219.299 45.0957 228.121C44.8464 232.498 44.8222 236.892 45.0233 241.273C45.2768 245.605 45.6859 250.116 45.7953 254.612C45.9708 259.128 45.8989 263.653 45.5802 268.156C45.4247 270.466 45.0975 272.752 44.6029 274.983C44.4853 275.569 44.3268 276.14 44.1293 276.69C43.9618 277.288 43.7373 277.856 43.4608 278.383L43.0385 279.213L42.7121 279.824C42.4751 280.221 42.2746 280.651 42.1145 281.106C41.3805 283.036 40.8044 285.057 40.3954 287.138C39.9391 289.246 39.5695 291.403 39.25 293.575C38.6056 297.929 38.1505 302.327 37.8867 306.746L37.613 306.176C42.9746 308.973 48.546 311.061 54.2401 312.407C59.9184 313.747 65.6819 314.408 71.456 314.381C77.1805 314.337 82.882 313.45 88.4475 311.736C93.9486 309.947 99.2115 307.123 104.064 303.358L103.369 305.177C102.71 297.972 101.948 290.75 101.131 283.578C100.722 279.991 100.227 276.425 99.6751 272.915C99.4174 271.192 99.0838 269.488 98.6759 267.813C98.5851 267.436 98.474 267.069 98.3433 266.712L97.8676 265.281C97.6362 264.295 97.4841 263.281 97.4136 262.256C97.1559 254.861 97.4458 247.452 98.2794 240.127C98.9407 232.857 99.8168 225.633 100.858 218.447C100.861 218.423 100.868 218.401 100.878 218.381C100.889 218.361 100.902 218.344 100.917 218.331C100.932 218.317 100.95 218.308 100.968 218.303C100.986 218.298 101.005 218.297 101.023 218.302C101.058 218.31 101.089 218.335 101.11 218.371C101.131 218.407 101.141 218.452 101.139 218.497C100.665 225.77 100.254 233.041 99.903 240.308C99.7403 243.94 99.6239 247.573 99.5803 251.192C99.4657 254.755 99.5563 258.325 99.8515 261.871C99.9276 262.661 100.063 263.439 100.257 264.195L100.655 265.261C100.841 265.722 101.002 266.197 101.138 266.685C101.633 268.47 102.049 270.289 102.381 272.135C103.066 275.747 103.568 279.367 104.046 282.985C105.006 290.225 105.714 297.476 106.322 304.769L106.329 304.853C106.358 305.199 106.306 305.547 106.181 305.856C106.057 306.164 105.864 306.419 105.627 306.588C100.459 310.423 94.8722 313.252 89.0519 314.98C83.2635 316.579 77.3387 317.223 71.4223 316.897C65.5612 316.502 59.7385 315.451 54.0208 313.756C48.3094 312.132 42.7025 309.956 37.2484 307.248C37.1633 307.205 37.0909 307.128 37.0415 307.03C36.9922 306.931 36.9683 306.816 36.9733 306.699L36.9744 306.677C37.1735 302.203 37.4828 297.759 37.916 293.303C38.1374 291.077 38.4105 288.853 38.7806 286.636C39.1189 284.365 39.6433 282.145 40.3452 280.014C40.5218 279.442 40.7453 278.895 41.012 278.383L41.3936 277.591L41.6477 276.992C41.84 276.58 41.9883 276.137 42.0886 275.675C42.2358 275.202 42.3469 274.712 42.4202 274.211C42.7906 272.127 43.0283 270.009 43.131 267.876C43.3781 263.537 43.3721 259.129 43.2853 254.723C43.24 252.521 43.1609 250.311 43.0414 248.122C42.9295 245.94 42.7357 243.652 42.716 241.405C42.6008 236.886 42.762 232.362 43.1982 227.875C43.9627 218.895 46.1205 210.199 49.5454 202.298C49.5635 202.258 49.5929 202.229 49.6275 202.216C49.6621 202.203 49.6993 202.207 49.7315 202.228C49.7637 202.249 49.7884 202.285 49.8006 202.328C49.8127 202.372 49.8114 202.419 49.7969 202.462L49.791 202.479Z" fill="#C7FEFF"/>
<path d="M125.814 214.994C127.251 219.974 128.124 225.191 128.407 230.486C128.787 235.741 128.926 241.02 128.823 246.295C128.759 248.928 128.649 251.555 128.533 254.181C128.333 256.8 128.21 259.425 127.938 262.033C127.472 267.267 126.763 272.461 125.814 277.588C125.611 272.302 125.663 267.068 125.733 261.844L125.993 246.211C126.123 241.009 126.16 235.816 126.207 230.619C126.285 225.406 126.154 220.19 125.814 214.994Z" fill="#C7FEFF"/>
<path d="M109.837 183.914C110.599 197.996 111.226 212.078 111.72 226.16C112.253 240.241 112.648 254.326 113.094 268.405L114.287 310.644C114.49 317.682 114.707 324.719 114.986 331.75C115.13 335.264 115.204 338.793 115.456 342.293C115.571 344.044 115.651 345.807 115.795 347.555L116.321 352.798L115.372 347.636C115.114 345.898 114.933 344.149 114.71 342.404C114.245 338.911 113.959 335.403 113.602 331.896C112.991 324.876 112.474 317.843 112.08 310.804C111.618 303.768 111.353 296.722 111.006 289.68L110.265 268.54C109.875 254.442 109.6 240.342 109.519 226.237C109.401 212.134 109.507 198.026 109.837 183.914Z" fill="#C7FEFF"/>
<path d="M110.603 181.442C111.267 180.892 112.021 180.542 112.807 180.418C113.67 180.263 114.548 180.525 115.268 181.153C115.984 181.83 116.496 182.802 116.719 183.905C116.944 184.914 117.048 185.96 117.029 187.009C116.905 188.827 117.008 190.658 117.331 192.434C117.421 192.824 117.571 193.186 117.772 193.501C117.973 193.815 118.221 194.075 118.502 194.265C119.169 194.619 119.906 194.695 120.609 194.482C119.931 195.077 119.095 195.303 118.286 195.11C117.858 194.966 117.459 194.702 117.12 194.339C116.78 193.975 116.507 193.52 116.32 193.005C115.727 191.099 115.485 189.043 115.613 186.998C115.774 185.305 115.404 183.599 114.583 182.255C114.01 181.747 113.354 181.41 112.665 181.269C111.976 181.128 111.271 181.187 110.603 181.442Z" fill="#C7FEFF"/>
<path d="M115.606 174.841C116.47 174.919 117.308 175.26 118.049 175.835C118.808 176.399 119.476 177.145 120.015 178.031C120.565 178.926 120.948 179.969 121.138 181.081C121.34 182.169 121.312 183.307 121.055 184.376C120.704 183.351 120.468 182.409 120.095 181.549C119.761 180.693 119.358 179.884 118.893 179.135C117.906 177.574 116.805 176.137 115.606 174.841Z" fill="#C7FEFF"/>
<path d="M99.3232 236.99C101.164 236.561 103.005 236.31 104.845 236.057C105.009 236.034 105.174 236.093 105.305 236.221C105.436 236.348 105.524 236.535 105.55 236.743L105.574 236.931C106.384 243.368 106.885 249.83 107.223 256.305C107.356 259.545 107.493 262.785 107.529 266.034C107.583 269.281 107.555 272.534 107.469 275.793L107.465 275.977C107.459 276.177 107.394 276.366 107.282 276.506C107.17 276.646 107.021 276.726 106.864 276.729C105.147 276.757 103.431 276.795 101.699 276.672C103.352 276 105.022 275.49 106.69 274.969L106.085 275.905C105.678 272.687 105.328 269.464 105.06 266.234C104.774 263.006 104.589 259.77 104.4 256.534C104.095 250.056 103.952 243.565 104.118 237.049L104.845 237.923C103.005 237.67 101.164 237.419 99.3232 236.99Z" fill="#C7FEFF"/>
<path d="M127.476 231.946C123.825 233.221 120.143 234.211 116.456 235.154L117.31 233.902C117.445 237.198 117.561 240.495 117.618 243.791C117.719 247.087 117.692 250.384 117.733 253.68C117.713 260.273 117.648 266.865 117.357 273.458L115.916 272.239C117.765 271.338 119.647 270.383 121.467 269.322C122.388 268.806 123.276 268.221 124.164 267.624C125.063 267.044 125.898 266.312 126.645 265.449C126.083 266.563 125.382 267.551 124.568 268.372C123.777 269.222 122.947 270.012 122.085 270.738C120.366 272.195 118.577 273.51 116.728 274.676C116.58 274.768 116.417 274.813 116.253 274.805C116.089 274.798 115.929 274.738 115.787 274.633C115.645 274.527 115.526 274.379 115.44 274.2C115.353 274.021 115.303 273.818 115.293 273.609L115.286 273.458C114.996 266.865 114.93 260.273 114.911 253.68C114.951 250.384 114.925 247.087 115.025 243.791C115.082 240.495 115.199 237.198 115.334 233.902L115.34 233.76C115.351 233.475 115.444 233.205 115.6 233.001C115.756 232.796 115.965 232.672 116.188 232.65C119.937 232.289 123.691 231.975 127.476 231.946Z" fill="#C7FEFF"/>
<path d="M46.2657 310.54C46.7497 317.91 47.2174 325.283 47.7788 332.637C48.0661 336.311 48.3637 339.992 48.7744 343.619C49.2593 347.308 49.4963 351.042 49.4826 354.782C49.5564 362.232 49.267 369.68 48.6161 377.083C48.4419 378.924 48.1973 380.846 47.9185 382.637C47.6559 384.437 47.4228 386.239 47.2191 388.045C46.8016 391.646 46.5745 395.28 46.5392 398.92C46.3689 406.211 46.8083 413.504 47.85 420.676C48.1278 422.435 48.4795 424.173 48.9035 425.883C49.3128 427.6 49.8875 429.123 50.4272 431.023C51.3819 434.634 52.0486 438.359 52.417 442.141C53.1261 449.607 53.2054 457.149 52.6534 464.636C52.4006 468.409 51.9044 472.148 51.17 475.816C50.793 477.716 50.2493 479.555 49.5492 481.299C49.1679 482.252 48.6775 483.126 48.0943 483.893C47.7482 484.367 47.3323 484.747 46.8705 485.014C46.4087 485.28 45.9102 485.427 45.4038 485.446L45.6797 485.401C42.8811 486.207 40.1776 486.701 37.4192 487.167C34.6729 487.623 31.9229 487.984 29.171 488.283C23.6673 488.888 18.1569 489.262 12.6463 489.484L12.7102 489.476C10.7121 489.78 8.76847 490.513 6.9614 491.645C6.12977 492.239 5.42503 493.1 5.50322 494.02C5.73908 495.139 6.27462 496.116 7.01646 496.782C7.12715 496.904 7.19561 497.076 7.20676 497.262C7.2179 497.448 7.17084 497.632 7.07592 497.774C7.01697 497.86 6.9429 497.927 6.85975 497.97C5.24115 498.741 3.72804 499.834 2.37647 501.209C1.74751 501.822 1.2775 502.662 1.02771 503.621C0.972569 504.083 1.01077 504.555 1.13867 504.993C1.26658 505.431 1.47994 505.82 1.75848 506.122C2.37055 506.866 3.06788 507.485 3.82634 507.959C4.58252 508.431 5.39467 508.74 6.22976 508.872C7.93186 509.171 9.66562 508.906 11.2642 508.1C11.3178 508.074 11.375 508.061 11.4325 508.063C11.49 508.064 11.5466 508.081 11.5993 508.11C11.6519 508.14 11.6994 508.183 11.7391 508.236C11.7788 508.289 11.8099 508.352 11.8307 508.42C11.8651 508.537 11.8685 508.665 11.8403 508.784C11.8121 508.903 11.7539 509.007 11.6747 509.08C10.2685 510.295 9.05666 511.842 8.10425 513.638C7.65472 514.444 7.45295 515.434 7.53744 516.418C7.63969 516.88 7.81734 517.309 8.05864 517.676C8.29995 518.044 8.59945 518.341 8.93736 518.55L8.98786 518.594C9.70468 518.993 10.4825 519.182 11.264 519.146C12.1142 519.147 12.9629 519.056 13.8014 518.876C15.5017 518.473 17.1745 517.899 18.8044 517.16C22.0813 515.632 25.2689 513.807 28.3431 511.701C28.4659 511.618 28.6088 511.599 28.7422 511.648C28.8756 511.696 28.9895 511.808 29.0602 511.96C29.1309 512.113 29.1532 512.294 29.1224 512.467C29.0916 512.64 29.01 512.791 28.8946 512.89L28.8775 512.904C26.9983 514.465 25.2553 516.279 23.6787 518.316C22.0669 520.113 20.9957 522.572 20.6494 525.27C20.6288 525.877 20.7216 526.481 20.92 527.032C21.0151 527.312 21.1306 527.58 21.2648 527.832C21.3326 527.958 21.4155 528.069 21.4885 528.189L21.6005 528.368C21.6801 528.482 21.543 528.307 21.6198 528.382C22.5473 528.733 23.5333 528.743 24.4651 528.412C26.6194 527.745 28.7027 526.748 30.6695 525.442C34.6856 522.773 38.5371 519.717 42.1907 516.301C45.902 512.958 49.4861 509.37 53.0536 505.76L52.99 505.83C54.2413 504.39 55.6128 503.131 57.0797 502.075C58.5885 500.941 60.2566 500.196 61.9897 499.882C62.9396 499.717 63.9058 499.8 64.8298 500.127C65.7538 500.454 66.6162 501.017 67.3649 501.782C68.7333 503.31 69.7664 505.267 70.3622 507.461C71.4285 511.486 72.0021 515.698 72.0627 519.946C72.151 522.038 72.0844 524.114 72.1999 525.985C72.301 527.859 72.594 529.708 73.0713 531.485C73.2745 532.272 73.5707 533.015 73.9496 533.687C74.3133 534.263 74.5959 534.437 74.8718 534.435C75.3327 534.375 75.7666 534.128 76.1105 533.731C76.533 533.226 76.8573 532.601 77.0573 531.907C77.3168 531.051 77.5228 530.169 77.6732 529.271C77.8697 528.241 78.0842 527.227 78.3167 526.231C78.7812 524.243 79.2777 522.335 79.679 520.436C81.1641 512.787 81.2987 504.811 80.0731 497.087C80.0499 496.9 80.0476 496.709 80.0663 496.52C81.6588 481.26 83.087 465.943 84.2382 450.622C84.7778 442.96 85.3481 435.296 85.6049 427.648C85.6951 425.733 85.6807 423.837 85.7244 421.93L85.6211 416.215L85.5645 413.259L85.6037 410.342C85.6178 408.394 85.6669 406.457 85.7375 404.524C86.2114 389.049 87.2976 373.678 88.3386 358.297C89.3866 342.919 90.697 327.573 91.9969 312.231C92.0008 312.183 92.0192 312.14 92.048 312.11C92.0768 312.079 92.1138 312.065 92.1508 312.069C92.1879 312.074 92.2221 312.097 92.2461 312.133C92.2701 312.17 92.2819 312.217 92.2789 312.264C91.3868 327.652 90.6664 343.056 89.8611 358.446C89.1268 373.836 88.3979 389.247 88.0667 404.615C88.0202 406.538 87.9954 408.456 88.0055 410.366L88.002 413.235L88.0916 416.061L88.2693 421.912C88.2499 423.861 88.287 425.825 88.2198 427.763C88.0304 435.534 87.6303 443.256 87.0739 450.958C85.9577 466.36 84.569 481.696 83.0104 497.029L83.0036 496.463C83.5691 500.573 83.8682 504.736 83.8978 508.909C83.8893 513.148 83.4186 517.365 82.4993 521.437C82.0556 523.456 81.5329 525.399 81.0741 527.298C80.8467 528.247 80.6388 529.192 80.4505 530.134C80.2572 531.22 79.9958 532.285 79.6687 533.317C79.313 534.617 78.6657 535.755 77.8077 536.588C76.9496 537.42 75.9188 537.912 74.8438 538C74.195 537.987 73.5609 537.751 73.0081 537.317C72.5274 536.93 72.1061 536.435 71.7651 535.854C71.2095 534.879 70.7777 533.798 70.4855 532.65C69.9411 530.574 69.6135 528.414 69.5112 526.227C69.4001 524.042 69.4874 522.049 69.4158 520.081C69.3937 516.19 68.907 512.326 67.9725 508.622C67.5488 506.945 66.7973 505.434 65.7892 504.232C65.2999 503.714 64.7319 503.332 64.1212 503.108C63.5104 502.885 62.8702 502.826 62.2406 502.934C59.3455 503.633 56.6643 505.366 54.5076 507.932L54.4435 508.002C50.8048 511.577 47.145 515.123 43.3141 518.383C39.5232 521.754 35.537 524.751 31.3902 527.348C29.2726 528.671 27.0382 529.663 24.7352 530.302C23.4476 530.728 22.0861 530.599 20.8615 529.936C20.7441 529.851 20.6394 529.74 20.5522 529.608L20.3969 529.358C20.296 529.19 20.1867 529.028 20.0955 528.851C19.9132 528.496 19.7579 528.118 19.6318 527.725C19.3676 526.934 19.2497 526.076 19.2874 525.218C19.3828 523.603 19.8143 522.049 20.5371 520.719C21.1914 519.448 21.9534 518.274 22.8091 517.217C24.4826 515.139 26.3267 513.298 28.3093 511.725L28.8437 512.929C27.2568 513.92 25.6853 514.948 24.063 515.851C22.45 516.776 20.8043 517.611 19.1259 518.356C17.4398 519.102 15.7102 519.677 13.9533 520.075C13.0582 520.259 12.1527 520.346 11.2462 520.336C10.2662 520.381 9.29406 520.097 8.42703 519.511L8.47701 519.554C8.02973 519.26 7.63656 518.848 7.32378 518.345C7.01099 517.841 6.78577 517.258 6.66314 516.635C6.53967 515.372 6.78898 514.096 7.36232 513.055C7.85839 512.075 8.44639 511.176 9.11321 510.379C9.75841 509.576 10.4487 508.834 11.1785 508.16L11.589 509.139C9.85168 510.039 7.96236 510.353 6.10295 510.048C5.16017 509.91 4.24218 509.57 3.38702 509.044C2.53366 508.522 1.7485 507.834 1.05927 507.005C0.661252 506.555 0.359147 505.983 0.18122 505.342C0.00329346 504.702 -0.0446342 504.014 0.0419559 503.344C0.326343 502.106 0.903998 501.012 1.69528 500.211C3.13033 498.711 4.74413 497.514 6.47533 496.666L6.31862 497.854C5.33412 496.971 4.64443 495.648 4.38591 494.146C4.34141 493.283 4.56389 492.431 5.00545 491.775C5.38974 491.201 5.84768 490.715 6.35969 490.337C7.31223 489.642 8.32659 489.096 9.38095 488.71C10.4116 488.313 11.4609 488 12.5226 487.773L12.5642 487.767L12.587 487.765C18.0718 487.367 23.5479 486.814 28.9978 486.039C31.7228 485.657 34.4414 485.213 37.1437 484.679C39.8302 484.143 42.5706 483.541 45.1272 482.72L45.1792 482.704C45.2526 482.68 45.3282 482.671 45.4037 482.674C46.0915 482.713 46.9751 481.444 47.5342 479.952C48.1152 478.377 48.5733 476.733 48.9021 475.043C49.5797 471.534 50.0302 467.96 50.2488 464.357C50.7388 457.099 50.6184 449.794 49.8898 442.568C49.571 439.001 48.9719 435.484 48.1016 432.07C47.6717 430.487 47.0144 428.651 46.5928 426.819C46.156 424.998 45.7962 423.149 45.5149 421.278C44.4935 413.881 44.0945 406.366 44.3248 398.86C44.39 395.103 44.6527 391.355 45.1111 387.643C45.3278 385.789 45.6101 383.952 45.9094 382.124C46.2281 380.297 46.4784 378.573 46.6875 376.749C47.4627 369.468 47.883 362.133 47.9461 354.786C48.0251 351.127 47.8634 347.465 47.4628 343.841C47.1515 340.129 46.9612 336.438 46.7792 332.74C46.4272 325.348 46.1618 317.955 45.983 310.56C45.9817 310.513 45.9951 310.467 46.0201 310.432C46.0451 310.397 46.0798 310.376 46.1167 310.373C46.1537 310.371 46.19 310.387 46.2179 310.418C46.2457 310.449 46.2629 310.493 46.2658 310.54L46.2657 310.54Z" fill="#C7FEFF"/>
<path d="M46.2657 310.54C46.7497 317.91 47.2174 325.283 47.7788 332.637C48.0661 336.311 48.3637 339.992 48.7744 343.619C49.2593 347.308 49.4963 351.042 49.4826 354.782C49.5564 362.232 49.267 369.68 48.6161 377.083C48.4419 378.924 48.1973 380.846 47.9185 382.637C47.6559 384.437 47.4228 386.239 47.2191 388.045C46.8016 391.646 46.5745 395.28 46.5392 398.92C46.3689 406.211 46.8083 413.504 47.85 420.676C48.1278 422.435 48.4795 424.173 48.9035 425.883C49.3128 427.6 49.8875 429.123 50.4272 431.023C51.3819 434.634 52.0486 438.359 52.417 442.141C53.1261 449.607 53.2054 457.149 52.6534 464.636C52.4006 468.409 51.9044 472.148 51.17 475.816C50.793 477.716 50.2493 479.555 49.5492 481.299C49.1679 482.252 48.6775 483.126 48.0943 483.893C47.7482 484.367 47.3323 484.747 46.8705 485.014C46.4087 485.28 45.9102 485.427 45.4038 485.446L45.6797 485.401C42.8811 486.207 40.1776 486.701 37.4192 487.167C34.6729 487.623 31.9229 487.984 29.171 488.283C23.6673 488.888 18.1569 489.262 12.6463 489.484L12.7102 489.476C10.7121 489.78 8.76847 490.513 6.9614 491.645C6.12977 492.239 5.42503 493.1 5.50322 494.02C5.73908 495.139 6.27462 496.116 7.01646 496.782C7.12715 496.904 7.19561 497.076 7.20676 497.262C7.2179 497.448 7.17084 497.632 7.07592 497.774C7.01697 497.86 6.9429 497.927 6.85975 497.97C5.24115 498.741 3.72804 499.834 2.37647 501.209C1.74751 501.822 1.2775 502.662 1.02771 503.621C0.972569 504.083 1.01077 504.555 1.13867 504.993C1.26658 505.431 1.47994 505.82 1.75848 506.122C2.37055 506.866 3.06788 507.485 3.82634 507.959C4.58252 508.431 5.39467 508.74 6.22976 508.872C7.93186 509.171 9.66562 508.906 11.2642 508.1C11.3178 508.074 11.375 508.061 11.4325 508.063C11.49 508.064 11.5466 508.081 11.5993 508.11C11.6519 508.14 11.6994 508.183 11.7391 508.236C11.7788 508.289 11.8099 508.352 11.8307 508.42C11.8651 508.537 11.8685 508.665 11.8403 508.784C11.8121 508.903 11.7539 509.007 11.6747 509.08C10.2685 510.295 9.05666 511.842 8.10425 513.638C7.65472 514.444 7.45295 515.434 7.53744 516.418C7.63969 516.88 7.81734 517.309 8.05864 517.676C8.29995 518.044 8.59945 518.341 8.93736 518.55L8.98786 518.594C9.70468 518.993 10.4825 519.182 11.264 519.146C12.1142 519.147 12.9629 519.056 13.8014 518.876C15.5017 518.473 17.1745 517.899 18.8044 517.16C22.0813 515.632 25.2689 513.807 28.3431 511.701C28.4659 511.618 28.6088 511.599 28.7422 511.648C28.8756 511.696 28.9895 511.808 29.0602 511.96C29.1309 512.113 29.1532 512.294 29.1224 512.467C29.0916 512.64 29.01 512.791 28.8946 512.89L28.8775 512.904C26.9983 514.465 25.2553 516.279 23.6787 518.316C22.0669 520.113 20.9957 522.572 20.6494 525.27C20.6288 525.877 20.7216 526.481 20.92 527.032C21.0151 527.312 21.1306 527.58 21.2648 527.832C21.3326 527.958 21.4155 528.069 21.4885 528.189L21.6005 528.368C21.6801 528.482 21.543 528.307 21.6198 528.382C22.5473 528.733 23.5333 528.743 24.4651 528.412C26.6194 527.745 28.7027 526.748 30.6695 525.442C34.6856 522.773 38.5371 519.717 42.1907 516.301C45.902 512.958 49.4861 509.37 53.0536 505.76L52.99 505.83C54.2413 504.39 55.6128 503.131 57.0797 502.075C58.5885 500.941 60.2566 500.196 61.9897 499.882C62.9396 499.717 63.9058 499.8 64.8298 500.127C65.7538 500.454 66.6162 501.017 67.3649 501.782C68.7333 503.31 69.7664 505.267 70.3622 507.461C71.4285 511.486 72.0021 515.698 72.0627 519.946C72.151 522.038 72.0844 524.114 72.1999 525.985C72.301 527.859 72.594 529.708 73.0713 531.485C73.2745 532.272 73.5707 533.015 73.9496 533.687C74.3133 534.263 74.5959 534.437 74.8718 534.435C75.3327 534.375 75.7666 534.128 76.1105 533.731C76.533 533.226 76.8573 532.601 77.0573 531.907C77.3168 531.051 77.5228 530.169 77.6732 529.271C77.8697 528.241 78.0842 527.227 78.3167 526.231C78.7812 524.243 79.2777 522.335 79.679 520.436C81.1641 512.787 81.2987 504.811 80.0731 497.087C80.0499 496.9 80.0476 496.709 80.0663 496.52C81.6588 481.26 83.087 465.943 84.2382 450.622C84.7778 442.96 85.3481 435.296 85.6049 427.648C85.6951 425.733 85.6807 423.837 85.7244 421.93L85.6211 416.215L85.5645 413.259L85.6037 410.342C85.6178 408.394 85.6669 406.457 85.7375 404.524C86.2114 389.049 87.2976 373.678 88.3386 358.297C89.3866 342.919 90.697 327.573 91.9969 312.231C92.0008 312.183 92.0192 312.14 92.048 312.11C92.0768 312.079 92.1138 312.065 92.1508 312.069C92.1879 312.074 92.2221 312.097 92.2461 312.133C92.2701 312.17 92.2819 312.217 92.2789 312.264C91.3868 327.652 90.6664 343.056 89.8611 358.446C89.1268 373.836 88.3979 389.247 88.0667 404.615C88.0202 406.538 87.9954 408.456 88.0055 410.366L88.002 413.235L88.0916 416.061L88.2693 421.912C88.2499 423.861 88.287 425.825 88.2198 427.763C88.0304 435.534 87.6303 443.256 87.0739 450.958C85.9577 466.36 84.569 481.696 83.0104 497.029L83.0036 496.463C83.5691 500.573 83.8682 504.736 83.8978 508.909C83.8893 513.148 83.4186 517.365 82.4993 521.437C82.0556 523.456 81.5329 525.399 81.0741 527.298C80.8467 528.247 80.6388 529.192 80.4505 530.134C80.2572 531.22 79.9958 532.285 79.6687 533.317C79.313 534.617 78.6657 535.755 77.8077 536.588C76.9496 537.42 75.9188 537.912 74.8438 538C74.195 537.987 73.5609 537.751 73.0081 537.317C72.5274 536.93 72.1061 536.435 71.7651 535.854C71.2095 534.879 70.7777 533.798 70.4855 532.65C69.9411 530.574 69.6135 528.414 69.5112 526.227C69.4001 524.042 69.4874 522.049 69.4158 520.081C69.3937 516.19 68.907 512.326 67.9725 508.622C67.5488 506.945 66.7973 505.434 65.7892 504.232C65.2999 503.714 64.7319 503.332 64.1212 503.108C63.5104 502.885 62.8702 502.826 62.2406 502.934C59.3455 503.633 56.6643 505.366 54.5076 507.932L54.4435 508.002C50.8048 511.577 47.145 515.123 43.3141 518.383C39.5232 521.754 35.537 524.751 31.3902 527.348C29.2726 528.671 27.0382 529.663 24.7352 530.302C23.4476 530.728 22.0861 530.599 20.8615 529.936C20.7441 529.851 20.6394 529.74 20.5522 529.608L20.3969 529.358C20.296 529.19 20.1867 529.028 20.0955 528.851C19.9132 528.496 19.7579 528.118 19.6318 527.725C19.3676 526.934 19.2497 526.076 19.2874 525.218C19.3828 523.603 19.8143 522.049 20.5371 520.719C21.1914 519.448 21.9534 518.274 22.8091 517.217C24.4826 515.139 26.3267 513.298 28.3093 511.725L28.8437 512.929C27.2568 513.92 25.6853 514.948 24.063 515.851C22.45 516.776 20.8043 517.611 19.1259 518.356C17.4398 519.102 15.7102 519.677 13.9533 520.075C13.0582 520.259 12.1527 520.346 11.2462 520.336C10.2662 520.381 9.29406 520.097 8.42703 519.511L8.47701 519.554C8.02973 519.26 7.63656 518.848 7.32378 518.345C7.01099 517.841 6.78577 517.258 6.66314 516.635C6.53967 515.372 6.78898 514.096 7.36232 513.055C7.85839 512.075 8.44639 511.176 9.11321 510.379C9.75841 509.576 10.4487 508.834 11.1785 508.16L11.589 509.139C9.85168 510.039 7.96236 510.353 6.10295 510.048C5.16017 509.91 4.24218 509.57 3.38702 509.044C2.53366 508.522 1.7485 507.834 1.05927 507.005C0.661252 506.555 0.359147 505.983 0.18122 505.342C0.00329346 504.702 -0.0446342 504.014 0.0419559 503.344C0.326343 502.106 0.903998 501.012 1.69528 500.211C3.13033 498.711 4.74413 497.514 6.47533 496.666L6.31862 497.854C5.33412 496.971 4.64443 495.648 4.38591 494.146C4.34141 493.283 4.56389 492.431 5.00545 491.775C5.38974 491.201 5.84768 490.715 6.35969 490.337C7.31223 489.642 8.32659 489.096 9.38095 488.71C10.4116 488.313 11.4609 488 12.5226 487.773L12.5642 487.767L12.587 487.765C18.0718 487.367 23.5479 486.814 28.9978 486.039C31.7228 485.657 34.4414 485.213 37.1437 484.679C39.8302 484.143 42.5706 483.541 45.1272 482.72L45.1792 482.704C45.2526 482.68 45.3282 482.671 45.4037 482.674C46.0915 482.713 46.9751 481.444 47.5342 479.952C48.1152 478.377 48.5733 476.733 48.9021 475.043C49.5797 471.534 50.0302 467.96 50.2488 464.357C50.7388 457.099 50.6184 449.794 49.8898 442.568C49.571 439.001 48.9719 435.484 48.1016 432.07C47.6717 430.487 47.0144 428.651 46.5928 426.819C46.156 424.998 45.7962 423.149 45.5149 421.278C44.4935 413.881 44.0945 406.366 44.3248 398.86C44.39 395.103 44.6527 391.355 45.1111 387.643C45.3278 385.789 45.6101 383.952 45.9094 382.124C46.2281 380.297 46.4784 378.573 46.6875 376.749C47.4627 369.468 47.883 362.133 47.9461 354.786C48.0251 351.127 47.8634 347.465 47.4628 343.841C47.1515 340.129 46.9612 336.438 46.7792 332.74C46.4272 325.348 46.1618 317.955 45.983 310.56C45.9817 310.513 45.9951 310.467 46.0201 310.432C46.0451 310.397 46.0798 310.376 46.1167 310.373C46.1537 310.371 46.19 310.387 46.2179 310.418C46.2457 310.449 46.2629 310.493 46.2658 310.54L46.2657 310.54Z" fill="#C7FEFF"/>
<path d="M109.779 466.237C109.777 466.004 109.813 465.773 109.887 465.559C109.96 465.346 110.069 465.155 110.205 464.999C110.46 464.67 110.746 464.383 111.057 464.146C111.662 463.677 112.298 463.28 112.959 462.958C114.258 462.338 115.596 461.859 116.958 461.525C122.361 460.206 127.909 460.188 133.318 461.472C134.684 461.801 136.025 462.278 137.328 462.897C137.997 463.212 138.64 463.609 139.248 464.083C139.571 464.329 139.864 464.633 140.118 464.985C140.277 465.162 140.395 465.39 140.459 465.646C140.523 465.901 140.532 466.175 140.484 466.436C140.479 466.457 140.471 466.476 140.461 466.492C140.451 466.509 140.438 466.523 140.423 466.533C140.409 466.543 140.393 466.55 140.376 466.552C140.36 466.554 140.343 466.553 140.327 466.547L140.314 466.541L139.736 466.237L140.403 466.223L140.234 466.328C140.116 465.699 139.421 465.435 138.847 465.218C138.222 465.021 137.588 464.874 136.948 464.78C135.657 464.577 134.344 464.461 133.033 464.374C131.72 464.292 130.405 464.212 129.086 464.203C127.771 464.12 126.451 464.146 125.132 464.129C122.495 464.106 119.859 464.159 117.224 464.288C115.911 464.378 114.591 464.444 113.291 464.646C112.642 464.726 111.998 464.859 111.363 465.045C110.769 465.274 110.05 465.416 109.779 466.237Z" fill="#C7FEFF"/>
<path d="M122.896 512.078C121.301 512.272 119.693 511.989 118.198 511.251C116.704 510.513 115.364 509.339 114.286 507.824C112.066 504.696 110.823 500.633 110.796 496.409C110.827 494.345 111.103 492.298 111.613 490.34C112.075 488.433 112.631 486.566 113.278 484.749C113.873 482.87 114.732 481.146 115.813 479.663C116.962 478.146 118.418 477.067 120.018 476.544C120.849 476.279 121.708 476.182 122.562 476.255C123.549 476.305 124.496 476.764 125.262 477.561C126.014 478.528 126.464 479.812 126.53 481.173C126.596 482.534 126.272 483.878 125.619 484.957C125.478 485.219 125.323 485.469 125.156 485.705L124.785 486.24C124.551 486.587 124.32 486.932 124.102 487.292C123.665 487.998 123.261 488.736 122.891 489.502C122.16 490.912 121.631 492.479 121.33 494.127C121.047 495.597 121.178 497.148 121.7 498.507C122.002 499.216 122.364 499.881 122.78 500.489C123.23 501.165 123.835 501.971 124.3 502.781C125.401 504.379 126.105 506.359 126.323 508.47C126.333 509.034 126.234 509.592 126.035 510.095C125.822 510.567 125.515 510.958 125.145 511.229C124.454 511.722 123.685 512.012 122.896 512.078ZM122.864 511.718C123.594 511.62 124.294 511.3 124.907 510.787C125.181 510.547 125.39 510.204 125.506 509.806C125.621 509.408 125.638 508.974 125.554 508.564C125.048 506.878 124.143 505.437 122.964 504.444C122.39 503.832 121.804 503.423 121.169 502.741C120.842 502.377 120.489 502.05 120.182 501.636C119.902 501.186 119.597 500.756 119.345 500.266C118.35 498.217 117.999 495.762 118.364 493.395C118.71 491.237 119.415 489.199 120.429 487.418C120.901 486.567 121.41 485.751 121.956 484.975C122.224 484.588 122.505 484.216 122.786 483.85L123.198 483.327C123.293 483.211 123.381 483.087 123.462 482.956C123.781 482.518 123.977 481.957 124.019 481.361C124.061 480.765 123.946 480.168 123.693 479.665C123.217 479.184 122.668 478.832 122.082 478.632C121.495 478.431 120.883 478.386 120.282 478.498C118.874 478.656 117.541 479.377 116.472 480.559C115.399 481.832 114.592 483.429 114.125 485.202C113.618 486.991 113.292 488.855 113.157 490.75C112.98 492.576 112.978 494.422 113.15 496.249C113.512 499.833 114.393 503.3 115.748 506.472C116.414 508.099 117.403 509.475 118.615 510.462C119.882 511.475 121.378 511.917 122.864 511.718V511.718Z" fill="#C7FEFF"/>
<path d="M6.60166 496.416C10.1448 496.106 13.7117 495.604 17.2314 494.855C18.9942 494.486 20.7456 494.03 22.4728 493.451C24.2153 492.927 25.8999 492.127 27.4876 491.069C25.9476 492.265 24.2972 493.211 22.5744 493.885C20.8658 494.614 19.1254 495.222 17.3715 495.743C13.8609 496.797 10.321 497.6 6.73164 498.22C6.54535 498.252 6.35668 498.188 6.20716 498.042C6.05764 497.897 5.95952 497.681 5.93436 497.443C5.9092 497.205 5.95907 496.963 6.073 496.772C6.18694 496.581 6.35558 496.455 6.54187 496.423L6.58631 496.417L6.60166 496.416Z" fill="#C7FEFF"/>
<path d="M11.1285 507.798L33.0967 495.796L11.7233 509.441C11.64 509.495 11.5493 509.527 11.4563 509.536C11.3633 509.544 11.2698 509.53 11.1813 509.492C11.0928 509.454 11.011 509.395 10.9405 509.317C10.87 509.239 10.8123 509.144 10.7707 509.037C10.729 508.93 10.7042 508.814 10.6978 508.695C10.6913 508.576 10.7033 508.457 10.733 508.344C10.7627 508.231 10.8095 508.126 10.8709 508.036C10.9322 507.946 11.0068 507.873 11.0904 507.82L11.1285 507.798Z" fill="#C7FEFF"/>
<path d="M28.2867 511.498L42.5297 503.784L28.8982 513.131C28.7325 513.245 28.5383 513.27 28.3583 513.2C28.1783 513.131 28.0273 512.973 27.9384 512.761C27.8496 512.549 27.8302 512.301 27.8845 512.07C27.9388 511.84 28.0624 511.647 28.2281 511.533C28.2471 511.52 28.2673 511.508 28.2867 511.498Z" fill="#C7FEFF"/>
<path d="M125.756 310.487C127.23 314.274 128.873 317.936 130.608 321.488C132.323 325.026 134.228 328.407 136.311 331.606C138.342 334.749 140.699 337.523 143.317 339.85C145.857 342.152 148.821 343.569 151.919 343.962L151.73 343.982C159.814 342.283 167.726 339.447 175.323 335.528C182.955 331.668 190.41 327.286 197.93 323.144L220.342 310.238C224.096 308.129 227.782 305.832 231.569 303.79C235.299 301.599 239.048 299.448 242.855 297.423C242.89 297.403 242.929 297.402 242.964 297.42C242.999 297.437 243.027 297.472 243.042 297.516C243.055 297.556 243.057 297.601 243.047 297.642C243.037 297.684 243.016 297.719 242.988 297.743C239.495 300.536 235.95 303.217 232.376 305.834C228.791 308.423 225.137 310.849 221.49 313.297C214.155 318.083 206.677 322.529 199.004 326.382C191.397 330.431 183.588 333.854 175.716 336.955L163.947 341.721C160.017 343.326 156.153 345.059 152.078 346.378C152.045 346.389 152.012 346.395 151.978 346.396L151.889 346.398C148.335 346.464 144.852 345.118 141.922 342.545C139.08 340.059 136.575 336.997 134.505 333.478C132.458 330.051 130.674 326.38 129.178 322.516C127.675 318.696 126.441 314.713 125.491 310.613C125.48 310.567 125.484 310.517 125.502 310.475C125.52 310.433 125.551 310.401 125.587 310.388C125.62 310.377 125.654 310.381 125.685 310.399C125.716 310.417 125.741 310.448 125.756 310.487Z" fill="#C7FEFF"/>
<path d="M145.294 260.767C146.499 264.287 147.838 267.725 149.199 271.138C150.577 274.54 152.042 277.883 153.649 281.096C155.214 284.308 157.01 287.327 159.013 290.112C159.979 291.457 161.087 292.622 162.306 293.573C163.388 294.474 164.699 294.811 165.97 294.513C166.009 294.5 166.049 294.492 166.089 294.487L166.139 294.482C171.794 293.825 177.41 292.704 182.951 291.125C188.503 289.608 193.98 287.679 199.357 285.349C204.724 283.05 209.953 280.254 215.003 276.983L218.742 274.442C219.97 273.557 221.145 272.559 222.354 271.634L224.159 270.227C224.746 269.731 225.308 269.188 225.884 268.671L229.32 265.535L229.118 265.782L235.685 256.017L238.98 251.146L240.663 248.69C241.293 247.812 241.993 247.021 242.752 246.33C245.041 244.254 247.788 243.164 250.595 243.22C251.531 243.25 252.298 243.333 253.158 243.386L263.211 244.201L268.237 244.615L270.751 244.822C271.23 244.838 271.708 244.917 272.175 245.056C272.678 245.23 273.156 245.506 273.59 245.875C274.451 246.621 275.093 247.713 275.414 248.979C275.707 250.207 275.704 251.52 275.406 252.746C274.918 255.079 273.762 257.093 272.167 258.388C271.383 259.025 270.511 259.462 269.597 259.674C268.722 259.839 267.836 259.88 266.954 259.797L261.918 259.624L251.846 259.266L252.008 258.935C252.614 260.964 252.82 263.152 252.61 265.308C252.699 263.185 252.38 261.066 251.683 259.136C251.673 259.108 251.667 259.079 251.666 259.048C251.665 259.018 251.668 258.987 251.676 258.959C251.684 258.93 251.697 258.904 251.713 258.881C251.729 258.858 251.748 258.84 251.769 258.827C251.793 258.813 251.819 258.805 251.846 258.804L261.918 258.446L266.954 258.273C267.749 258.298 268.544 258.211 269.325 258.014C270.058 257.784 270.752 257.387 271.376 256.843C273.834 254.838 275.089 249.592 272.617 247.772C272.344 247.559 272.046 247.403 271.735 247.308C271.381 247.225 271.021 247.187 270.661 247.194L268.144 247.092L263.11 246.889L253.042 246.468C252.225 246.434 251.317 246.364 250.574 246.36C249.822 246.362 249.071 246.464 248.335 246.666C246.119 247.271 244.112 248.77 242.61 250.941L241.007 253.363L237.756 258.281L231.232 268.093L231.217 268.115C231.161 268.199 231.098 268.274 231.029 268.341C226.409 272.867 221.466 276.826 216.265 280.164C211.087 283.495 205.714 286.307 200.196 288.574C194.695 290.84 189.092 292.676 183.418 294.074C177.738 295.446 171.995 296.347 166.225 296.772L166.394 296.741C164.675 297.121 162.908 296.634 161.465 295.382C160.141 294.281 158.945 292.946 157.914 291.416C155.924 288.457 154.186 285.234 152.73 281.804C149.798 275.069 147.31 268.032 145.294 260.767Z" fill="#C7FEFF"/>
<path d="M308.605 221.158C301.604 215.823 291.61 217.145 286.236 224.115L273.06 241.207C271.343 243.434 272.992 246.493 274.385 248.935C274.475 249.093 274.552 249.254 274.617 249.417C274.628 249.445 274.634 249.474 274.64 249.503C274.643 249.518 274.647 249.532 274.652 249.545C274.658 249.56 274.662 249.576 274.671 249.588C274.677 249.597 274.677 249.609 274.68 249.619C274.845 250.17 274.916 250.759 274.887 251.348C274.86 251.89 274.75 252.419 274.563 252.905C274.526 252.999 274.489 253.093 274.464 253.19C273.73 254.984 272.718 256.568 271.489 257.845C271.48 257.857 271.469 257.868 271.458 257.879C271.215 258.106 270.943 258.277 270.653 258.383C270.644 258.386 270.634 258.388 270.625 258.388C270.616 258.388 270.607 258.39 270.598 258.392C269.463 258.771 268.299 258.988 267.126 259.04C262.227 259.438 257.477 261.443 254.573 265.409L243.98 279.872C239.982 285.332 239.851 292.717 243.653 298.316L262.799 326.506C268.802 335.344 281.615 335.928 288.397 327.674L339.463 265.525C345.219 258.52 344.01 248.136 336.798 242.641L308.605 221.158ZM263.047 305.044C262.497 305.019 261.976 304.721 261.593 304.215C261.211 303.708 260.997 303.031 260.997 302.327C260.997 301.623 261.211 300.946 261.593 300.439C261.976 299.932 262.497 299.635 263.047 299.61C263.598 299.635 264.119 299.932 264.501 300.439C264.884 300.946 265.098 301.623 265.098 302.327C265.098 303.031 264.884 303.708 264.501 304.215C264.119 304.721 263.598 305.019 263.047 305.044ZM257.26 298.766C252.699 293.014 252.638 284.896 257.112 279.076L286.708 240.57C292.315 233.275 302.905 232.201 309.863 238.221L317.788 245.078C324.386 250.788 325.193 260.732 319.602 267.431L287.49 305.902C280.988 313.691 268.972 313.539 262.668 305.589L257.26 298.766Z" fill="#C7FEFF"/>
<path d="M287.906 249.852L292.44 243.049L297.249 236.055L297.578 235.577L298.024 235.946C300.908 238.335 303.773 240.759 306.619 243.219L307.369 243.864L306.698 244.638C302.836 249.1 298.946 253.524 294.959 257.81L294.651 258.141L294.374 257.818C292.084 255.137 289.949 252.364 287.906 249.852ZM287.906 249.852C290.367 252.368 292.737 254.624 294.952 256.971L294.368 256.978C298.087 252.314 301.903 247.787 305.747 243.299L305.826 244.718C302.986 242.245 300.161 239.746 297.35 237.219L298.124 237.11L293.152 243.386L287.906 249.852Z" fill="#C7FEFF"/>
<path d="M131.167 108.546C131.957 107.837 132.834 107.301 133.762 106.959C134.684 106.595 135.637 106.378 136.601 106.313C137.58 106.259 138.559 106.393 139.507 106.711C140.462 107.035 141.335 107.667 142.045 108.546C141.145 108.331 140.235 108.183 139.321 108.104C138.433 108.066 137.553 108.064 136.665 108.121C134.879 108.212 133.1 108.485 131.167 108.546Z" fill="#C7FEFF"/>
<path d="M135.927 121.477C136.478 121.452 137 121.155 137.383 120.649C137.766 120.142 137.98 119.465 137.98 118.76C137.98 118.055 137.766 117.378 137.383 116.871C137 116.365 136.478 116.068 135.927 116.043C135.377 116.068 134.855 116.365 134.472 116.871C134.089 117.378 133.875 118.055 133.875 118.76C133.875 119.465 134.089 120.142 134.472 120.649C134.855 121.155 135.377 121.452 135.927 121.477Z" fill="#C7FEFF"/>
<path d="M130.108 87.8516C130.108 87.8516 139.211 102.349 152.808 97.5677C152.808 97.5677 181.342 81.544 154.058 64.4963C126.774 47.4487 125.813 51.5274 115.36 48.9111C112.597 48.2195 93.7498 42.0437 83.6736 57.7113C81.8439 60.6464 80.4973 64.0244 79.7149 67.6421C78.9324 71.2598 78.7303 75.0425 79.1206 78.7627C79.3116 80.7838 79.5356 82.9782 79.7706 84.9156C80.1542 88.061 80.1085 91.2676 79.6353 94.393C77.7503 107.333 78.0433 120.637 80.4949 133.421C80.4949 133.421 97.3591 136.629 106.974 121.322C106.974 121.322 108.86 94.2016 120.454 111.921C120.454 111.921 130.108 116.54 130.108 87.8516Z" fill="#C7FEFF"/>
<path d="M138.963 149.002C138.96 150.831 138.438 152.596 137.493 153.97C136.549 155.343 135.246 156.231 133.828 156.469C133.027 156.597 132.213 156.509 131.44 156.212C130.667 155.915 129.95 155.415 129.337 154.744C128.691 154.032 128.173 153.151 127.817 152.159C127.461 151.168 127.277 150.091 127.277 149C127.276 147.91 127.46 146.832 127.815 145.84C128.169 144.849 128.687 143.966 129.333 143.254C129.946 142.581 130.663 142.079 131.437 141.781C132.211 141.483 133.026 141.396 133.828 141.525C135.247 141.765 136.549 142.655 137.494 144.03C138.438 145.405 138.96 147.171 138.963 149.002ZM138.963 149.002C138.961 148.149 138.813 147.307 138.529 146.536C138.245 145.764 137.832 145.082 137.318 144.538C136.836 144.033 136.276 143.665 135.674 143.46C135.072 143.254 134.442 143.215 133.828 143.345C132.786 143.579 131.842 144.274 131.161 145.309C130.481 146.345 130.108 147.654 130.108 149.006C130.108 150.359 130.481 151.668 131.161 152.703C131.842 153.739 132.786 154.434 133.828 154.667C134.443 154.797 135.073 154.756 135.675 154.549C136.277 154.342 136.838 153.973 137.32 153.467C137.833 152.922 138.246 152.239 138.53 151.468C138.814 150.696 138.961 149.854 138.963 149.002Z" fill="#C7FEFF"/>
<path d="M309.618 246.987C311.564 247.866 313.413 249.062 315.12 250.546C316.86 251.966 318.447 253.67 319.842 255.616C317.895 254.741 316.045 253.545 314.34 252.057C312.602 250.634 311.015 248.93 309.618 246.987Z" fill="#2DAA50"/>
<path d="M305.104 254.378C307.036 255.245 308.872 256.43 310.565 257.903C312.291 259.311 313.865 261.004 315.246 262.937C313.312 262.075 311.476 260.89 309.785 259.413C308.06 258.002 306.487 256.31 305.104 254.378Z" fill="#2DAA50"/>
<path d="M298.345 260.68C300.629 261.841 302.807 263.316 304.841 265.078C306.91 266.774 308.827 268.755 310.557 270.987C308.273 269.829 306.094 268.354 304.062 266.589C301.995 264.89 300.078 262.909 298.345 260.68Z" fill="#2DAA50"/>
<path d="M275.794 264.749C279.814 267.373 283.71 270.298 287.46 273.51C291.245 276.653 294.88 280.083 298.346 283.781C294.324 281.161 290.428 278.236 286.68 275.021C282.896 271.874 279.261 268.445 275.794 264.749Z" fill="#2DAA50"/>
<path d="M271.198 272.07C275.218 274.694 279.114 277.619 282.864 280.831C286.65 283.974 290.285 287.404 293.75 291.102C289.728 288.482 285.833 285.557 282.084 282.341C278.3 279.195 274.665 275.765 271.198 272.07Z" fill="#2DAA50"/>
<path d="M266.509 278.433C269.894 280.591 273.174 282.997 276.333 285.639C279.521 288.224 282.582 291.046 285.5 294.088C282.113 291.933 278.833 289.526 275.676 286.882C272.489 284.294 269.428 281.473 266.509 278.433Z" fill="#2DAA50"/>
<path d="M281.419 258.094C285.439 260.717 289.334 263.643 293.084 266.855C296.87 269.998 300.505 273.428 303.97 277.126C299.949 274.506 296.053 271.58 292.305 268.365C288.521 265.219 284.886 261.789 281.419 258.094Z" fill="#2DAA50"/>
<path d="M292.5 96.2815C293.839 91.1922 294.685 85.8544 295 80.5C295.171 77.8292 295.116 75.1756 295 72.5C294.957 71.5 294.795 69.8321 294.7 68.5C294.605 67.1679 294.433 65.8041 294.2 64.5C293.967 63.1959 293.4 60.6641 293.4 60.6641C293.4 60.6641 292.5 57.5 292 56C291.167 53.5 289.302 47.3444 288 45C285.5 40.5 285.5 40 283.3 36L282.3 34.5C281.948 34.0127 281.565 33.4718 281.2 33L279.6 31L277 28L275.5 26.5C275.082 26.1092 274.429 25.371 274 25L272 23.5C271.106 22.8316 270.409 22.1366 269.5 21.5C267.667 20.2587 265.944 19.1096 264.001 18.1801C256.156 14.5138 248.35 14.0676 240.095 15.7C238 16.1143 238.09 16.2255 236.095 17C235.106 17.4179 232.349 18.4718 231.39 19L227.095 21.4397C221.363 25.74 218.887 28.35 214.595 33.2212C210.303 39.097 206.282 47.4622 204.095 55C201.137 65.0329 200.515 75.0291 201.899 85.6043C203.268 96.1424 204.957 105.783 210.226 114.074L210.459 114.44L210.336 114.894L202.66 143.141L201.8 141.878L232.608 133.926L232.797 133.877L232.983 133.953C244.859 138.838 256.93 136.57 268.184 129.684C273 126 277.5 122.5 282.5 116.145C286.672 110.216 290.421 103.802 292.5 96.2815ZM294.932 96.6827C290.74 112 280.649 124.349 269.379 131.811C257.989 139.311 244.738 140.733 232.529 135.764L232.903 135.79L202.099 143.766L200.794 144.103L201.239 142.503L209.073 114.326L209.183 115.145C203.884 106.583 200.425 96.4004 199.147 85.6043C197.87 74.8083 198.818 63.7729 201.899 53.5893C204.987 43.4648 210.043 34.5143 216.589 27.584C223.135 20.6537 230.955 15.9724 239.31 13.9825C247.724 12.0513 256.386 12.9776 264.432 16.6688C272.488 20.3835 279.714 26.7957 285.17 35.2358C285.834 36.2973 286.366 36.9117 287 38L289 41.5C289.595 42.6238 290.238 43.7779 290.7 45C291.18 46.2089 292.06 47.7685 292.5 49C293.662 51.5207 294.23 54 294.9 56.4657C295.253 57.7647 295.75 59.5 296 60.6641L296.6 63.5C298.7 74 298.5 85.6043 294.932 96.6827Z" fill="#2DAA50"/>
</svg>
