<svg width="16" height="17" viewBox="0 0 16 17" fill="none" xmlns="http://www.w3.org/2000/svg">
<path d="M5.78971 9.39466C5.92438 9.12533 6.00038 8.82133 6.00038 8.5C6.00038 8.17866 5.92438 7.87466 5.78971 7.60533M5.78971 9.39466C5.58818 9.79759 5.25651 10.1207 4.84844 10.3116C4.44037 10.5025 3.9798 10.55 3.54134 10.4465C3.10288 10.3429 2.71222 10.0944 2.43265 9.74111C2.15308 9.38783 2.00098 8.95051 2.00098 8.5C2.00098 8.04948 2.15308 7.61216 2.43265 7.25888C2.71222 6.9056 3.10288 6.65706 3.54134 6.55353C3.9798 6.44999 4.44037 6.49752 4.84844 6.68842C5.25651 6.87932 5.58818 7.2024 5.78971 7.60533M5.78971 9.39466L10.211 11.6053M5.78971 7.60533L10.211 5.39466M10.211 11.6053C9.97376 12.0799 9.93472 12.6293 10.1025 13.1326C10.2703 13.636 10.6312 14.052 11.1057 14.2893C11.5803 14.5266 12.1297 14.5657 12.633 14.3979C13.1363 14.2301 13.5524 13.8692 13.7897 13.3947C14.027 12.9201 14.066 12.3707 13.8983 11.8674C13.7305 11.364 13.3696 10.9479 12.895 10.7107C12.6601 10.5932 12.4042 10.5231 12.1422 10.5045C11.8801 10.4859 11.617 10.519 11.3678 10.6021C10.8644 10.7699 10.4483 11.1308 10.211 11.6053ZM10.211 5.39466C10.3285 5.6296 10.4911 5.83909 10.6896 6.01118C10.888 6.18327 11.1185 6.31459 11.3677 6.39763C11.6169 6.48068 11.88 6.51383 12.142 6.49519C12.404 6.47655 12.6598 6.40648 12.8947 6.289C13.1296 6.17151 13.3391 6.00889 13.5112 5.81044C13.6833 5.61199 13.8146 5.38159 13.8977 5.13238C13.9807 4.88318 14.0139 4.62006 13.9952 4.35805C13.9766 4.09604 13.9065 3.84026 13.789 3.60533C13.5518 3.13086 13.1357 2.77008 12.6324 2.60236C12.1291 2.43464 11.5798 2.47371 11.1054 2.71099C10.6309 2.94828 10.2701 3.36432 10.1024 3.86761C9.93469 4.37089 9.97376 4.92019 10.211 5.39466Z" stroke="#4A5568" strokeLinejoin="round" stroke-linejoin="round"/>
</svg>
