<svg width="41" height="40" viewBox="0 0 41 40" fill="none" xmlns="http://www.w3.org/2000/svg">
<rect x="0.5" width="40" height="40" rx="20" fill="#F3F6FF"/>
<path d="M13.8333 22.5H15.155L19.0775 26.4225C19.6025 26.9475 20.5 26.5758 20.5 25.8333V14.1666C20.5 13.4241 19.6025 13.0525 19.0775 13.5775L15.155 17.5H13.8333C13.6123 17.5 13.4004 17.5878 13.2441 17.744C13.0878 17.9003 13 18.1123 13 18.3333V21.6666C13 21.8876 13.0878 22.0996 13.2441 22.2559C13.4004 22.4122 13.6123 22.5 13.8333 22.5Z" fill="#7E7E7E"/>
<path d="M23.4467 17.0533C23.8337 17.4402 24.1407 17.8996 24.3502 18.4052C24.5596 18.9108 24.6674 19.4527 24.6674 20C24.6674 20.5472 24.5596 21.0891 24.3502 21.5947C24.1407 22.1003 23.8337 22.5597 23.4467 22.9466M25.8033 14.6966C26.4998 15.3931 27.0522 16.2199 27.4292 17.1298C27.8061 18.0398 28.0001 19.015 28.0001 20C28.0001 20.9849 27.8061 21.9602 27.4292 22.8701C27.0522 23.7801 26.4998 24.6069 25.8033 25.3033M15.155 22.5H13.8333C13.6123 22.5 13.4004 22.4122 13.2441 22.2559C13.0878 22.0996 13 21.8876 13 21.6666V18.3333C13 18.1123 13.0878 17.9003 13.2441 17.744C13.4004 17.5878 13.6123 17.5 13.8333 17.5H15.155L19.0775 13.5775C19.6025 13.0525 20.5 13.4241 20.5 14.1666V25.8333C20.5 26.5758 19.6025 26.9475 19.0775 26.4225L15.155 22.5Z" stroke="#7E7E7E" strokeWidth="2" strokeLinejoin="round" stroke-linejoin="round"/>
</svg>
