<svg width="56" height="56" viewBox="0 0 56 56" fill="none" xmlns="http://www.w3.org/2000/svg">
<rect width="56" height="56" rx="28" fill="#DC1717"/>
<path d="M32 25.3333L38.0707 22.2987C38.2739 22.1971 38.4997 22.1492 38.7267 22.1594C38.9536 22.1696 39.1742 22.2377 39.3675 22.3571C39.5608 22.4765 39.7203 22.6433 39.831 22.8417C39.9417 23.0401 39.9999 23.2635 40 23.4907V32.5093C39.9999 32.7365 39.9417 32.9599 39.831 33.1583C39.7203 33.3567 39.5608 33.5235 39.3675 33.6429C39.1742 33.7623 38.9536 33.8304 38.7267 33.8406C38.4997 33.8508 38.2739 33.8029 38.0707 33.7013L32 30.6667V25.3333ZM18.6667 36H29.3333C30.0406 36 30.7189 35.719 31.219 35.219C31.719 34.7189 32 34.0406 32 33.3333V22.6667C32 21.9594 31.719 21.2811 31.219 20.781C30.7189 20.281 30.0406 20 29.3333 20H18.6667C17.9594 20 17.2811 20.281 16.781 20.781C16.281 21.2811 16 21.9594 16 22.6667V33.3333C16 34.0406 16.281 34.7189 16.781 35.219C17.2811 35.719 17.9594 36 18.6667 36Z" stroke="white" strokeWidth="2" strokeLinejoin="round" stroke-linejoin="round"/>
</svg>
