<svg width="45" height="44" viewBox="0 0 45 44" fill="none" xmlns="http://www.w3.org/2000/svg">
<rect x="0.5" width="44" height="44" rx="12" fill="#F3F6FF"/>
<path d="M25 20.3333L28.7942 18.4367C28.9212 18.3732 29.0623 18.3432 29.2042 18.3496C29.346 18.356 29.4839 18.3985 29.6047 18.4732C29.7255 18.5478 29.8252 18.6521 29.8944 18.7761C29.9636 18.9001 29.9999 19.0397 30 19.1817V24.8183C29.9999 24.9603 29.9636 25.0999 29.8944 25.2239C29.8252 25.3479 29.7255 25.4522 29.6047 25.5268C29.4839 25.6015 29.346 25.644 29.2042 25.6504C29.0623 25.6568 28.9212 25.6268 28.7942 25.5633L25 23.6667V20.3333ZM16.6667 27H23.3333C23.7754 27 24.1993 26.8244 24.5118 26.5118C24.8244 26.1993 25 25.7754 25 25.3333V18.6667C25 18.2246 24.8244 17.8007 24.5118 17.4882C24.1993 17.1756 23.7754 17 23.3333 17H16.6667C16.2246 17 15.8007 17.1756 15.4882 17.4882C15.1756 17.8007 15 18.2246 15 18.6667V25.3333C15 25.7754 15.1756 26.1993 15.4882 26.5118C15.8007 26.8244 16.2246 27 16.6667 27Z" stroke="#7E7E7E" strokeWidth="2" strokeLinejoin="round" stroke-linejoin="round"/>
</svg>
