<svg width="56" height="56" viewBox="0 0 56 56" fill="none" xmlns="http://www.w3.org/2000/svg">
<rect width="56" height="56" rx="28" fill="#DC1717"/>
<path d="M16.781 16.781C16.281 17.2811 16 17.9594 16 18.6667V20C16 31.0453 24.9547 40 36 40H37.3333C38.0406 40 38.7189 39.719 39.219 39.219C39.719 38.7189 40 38.0406 40 37.3333V32.9613C40.0001 32.6814 39.912 32.4085 39.7483 32.1814C39.5846 31.9543 39.3536 31.7845 39.088 31.696L33.0973 29.6987C32.7929 29.5975 32.4621 29.6094 32.1658 29.7324C31.8695 29.8553 31.6274 30.081 31.484 30.368L29.9773 33.3773C26.7126 31.9022 24.0978 29.2874 22.6227 26.0227L25.632 24.516C25.919 24.3726 26.1447 24.1305 26.2676 23.8342C26.3906 23.5379 26.4025 23.2071 26.3013 22.9027L24.304 16.912C24.2156 16.6466 24.046 16.4157 23.8191 16.2521C23.5923 16.0884 23.3197 16.0002 23.04 16H18.6667C17.9594 16 17.2811 16.281 16.781 16.781Z" stroke="white" strokeWidth="2" strokeLinejoin="round" stroke-linejoin="round"/>
</svg>
