<svg width="12" height="12" viewBox="0 0 12 12" fill="none" xmlns="http://www.w3.org/2000/svg">
<rect width="12" height="12" fill="#F5F5F5"/>
<rect x="-134" y="-461" width="1440" height="1024" rx="20" fill="#137492"/>
<path d="M-50 -429C-50 -440.046 -41.0457 -449 -30 -449H300V551H-30C-41.0457 551 -50 542.046 -50 531V-429Z" fill="white"/>
<g clip-path="url(#clip0_0_1)">
<path d="M-9 11.9997C2.56624 11.9997 12 2.56624 12 -9C12 -20.5665 2.56649 -30 -9 -30C-20.5665 -30 -30 -20.5665 -30 -9.00008C-30 2.56616 -20.5665 11.9997 -9 11.9997Z" fill="white"/>
<path fillRule="evenodd" clipRule="evenodd" d="M3.26041 8.03238C-0.193348 10.5274 -4.43035 12.0001 -9.00024 12.0001C-13.5578 12.0001 -17.7842 10.5354 -21.2328 8.05265C-21.0847 7.42388 -20.9441 6.78845 -20.8162 6.21026C-20.5597 5.05053 -20.3541 4.12113 -20.2406 3.93787C-18.8134 1.63346 -17.0417 0.813971 -15.4842 0.0935664C-13.538 -0.806635 -11.9263 -1.55212 -11.7391 -4.84688C-11.7391 -4.84688 -10.2566 -3.7112 -9.03995 -3.72205C-7.8234 -3.73291 -6.23014 -4.92188 -6.23014 -4.92188C-6.04225 -1.61831 -4.42532 -0.854394 -2.47434 0.0673485C-0.919344 0.802004 0.84786 1.63692 2.27288 3.93787C2.38633 4.12089 2.59173 5.04939 2.84808 6.20822C2.97473 6.78076 3.11382 7.40952 3.26041 8.03238Z" fill="#FFE1B2"/>
<path fillRule="evenodd" clipRule="evenodd" d="M3.3177 7.99113C-0.1464 10.5112 -4.40492 12.0002 -9.00001 12.0002C-13.5849 12.0002 -17.8347 10.5179 -21.2946 8.00801C-21.0956 6.99147 -20.9087 5.87179 -20.7457 4.89544C-20.5224 3.55752 -20.344 2.48872 -20.241 2.32322C-19.4433 1.04066 -17.7953 0.585565 -16.2609 0.161853C-15.4515 -0.061658 -14.6737 -0.276436 -14.0691 -0.599334L-14.0685 -0.598675C-10.822 9.81605 -6.76051 9.14208 -4.03554 -0.744141C-3.44582 -0.427463 -2.63043 -0.207691 -1.77717 0.022287C-0.0945734 0.475795 1.73526 0.968989 2.27219 2.32322C2.33418 2.47949 2.47467 3.29599 2.66003 4.37331C2.84554 5.45149 3.076 6.79089 3.3177 7.99113ZM-14.0688 -0.599454C-14.0689 -0.599414 -14.069 -0.599374 -14.0691 -0.599334L-14.0692 -0.599454H-14.0688ZM-14.0688 -0.599454C-14.0688 -0.599481 -14.0687 -0.599507 -14.0687 -0.599533V-0.599454H-14.0688Z" fill="#137492"/>
</g>
<rect x="-29.5" y="-29.5" width="41" height="41" rx="20.5" stroke="#F3F6FF"/>
<rect width="12" height="12" rx="6" fill="white"/>
<circle cx="6" cy="6" r="5" fill="#F6B40C"/>
<path d="M300 21H-50V23H300V21Z" fill="#F3F6FF" mask="url(#path-4-inside-1_0_1)"/>
<defs>
<clipPath id="clip0_0_1">
<rect x="-30" y="-30" width="42" height="42" rx="21" fill="white"/>
</clipPath>
</defs>
</svg>
